<?xml version="1.0" encoding="UTF-8"?>
<!--Generator: CustomSymbols by @serious_bret-->
<!DOCTYPE svg
PUBLIC "-//W3C//DTD SVG 1.1//EN"
       "http://www.w3.org/Graphics/SVG/1.1/DTD/svg11.dtd">
<svg version="1.1" xmlns="http://www.w3.org/2000/svg" xmlns:xlink="http://www.w3.org/1999/xlink" width="3300" height="2200">
 <g id="Notes">
  <rect height="2200" id="artboard" style="fill:white;opacity:1" width="3300" x="0" y="0"/>
  <line id="" style="fill:none;stroke:black;opacity:1;stroke-width:0.5;" x1="263" x2="3036" y1="292" y2="292"/>
  <text id="reftext1" style="stroke:none;fill:black;font-family:-apple-system,&quot;SF Pro Display&quot;,&quot;SF Pro Text&quot;,Helvetica,sans-serif;font-weight:bold;" transform="matrix(1 0 0 1 263 322)">Weight/Scale Variations</text>
  <text id="reftext2" style="stroke:none;fill:black;font-family:-apple-system,&quot;SF Pro Display&quot;,&quot;SF Pro Text&quot;,Helvetica,sans-serif;text-anchor:middle;" transform="matrix(1 0 0 1 559.711 322)">Ultralight</text>
  <text style="stroke:none;fill:black;font-family:-apple-system,&quot;SF Pro Display&quot;,&quot;SF Pro Text&quot;,Helvetica,sans-serif;text-anchor:middle;" transform="matrix(1 0 0 1 856.422 322)">Thin</text>
  <text style="stroke:none;fill:black;font-family:-apple-system,&quot;SF Pro Display&quot;,&quot;SF Pro Text&quot;,Helvetica,sans-serif;text-anchor:middle;" transform="matrix(1 0 0 1 1153.13 322)">Light</text>
  <text style="stroke:none;fill:black;font-family:-apple-system,&quot;SF Pro Display&quot;,&quot;SF Pro Text&quot;,Helvetica,sans-serif;text-anchor:middle;" transform="matrix(1 0 0 1 1449.84 322)">Regular</text>
  <text style="stroke:none;fill:black;font-family:-apple-system,&quot;SF Pro Display&quot;,&quot;SF Pro Text&quot;,Helvetica,sans-serif;text-anchor:middle;" transform="matrix(1 0 0 1 1746.56 322)">Medium</text>
  <text style="stroke:none;fill:black;font-family:-apple-system,&quot;SF Pro Display&quot;,&quot;SF Pro Text&quot;,Helvetica,sans-serif;text-anchor:middle;" transform="matrix(1 0 0 1 2043.27 322)">Semibold</text>
  <text style="stroke:none;fill:black;font-family:-apple-system,&quot;SF Pro Display&quot;,&quot;SF Pro Text&quot;,Helvetica,sans-serif;text-anchor:middle;" transform="matrix(1 0 0 1 2339.98 322)">Bold</text>
  <text style="stroke:none;fill:black;font-family:-apple-system,&quot;SF Pro Display&quot;,&quot;SF Pro Text&quot;,Helvetica,sans-serif;text-anchor:middle;" transform="matrix(1 0 0 1 2636.69 322)">Heavy</text>
  <text style="stroke:none;fill:black;font-family:-apple-system,&quot;SF Pro Display&quot;,&quot;SF Pro Text&quot;,Helvetica,sans-serif;text-anchor:middle;" transform="matrix(1 0 0 1 2933.4 322)">Black</text>
  <line id="" style="fill:none;stroke:black;opacity:1;stroke-width:0.5;" x1="263" x2="3036" y1="1903" y2="1903"/>
  <g id="" transform="matrix(1 0 0 1 263 1933)">
   <path d="M9.24805 0.830078C13.5547 0.830078 17.1387-2.74414 17.1387-7.05078C17.1387-11.3574 13.5449-14.9316 9.23828-14.9316C4.94141-14.9316 1.36719-11.3574 1.36719-7.05078C1.36719-2.74414 4.95117 0.830078 9.24805 0.830078ZM9.24805-0.654297C5.70312-0.654297 2.87109-3.49609 2.87109-7.05078C2.87109-10.6055 5.69336-13.4473 9.23828-13.4473C12.793-13.4473 15.6348-10.6055 15.6445-7.05078C15.6543-3.49609 12.8027-0.654297 9.24805-0.654297ZM6.39648-6.31836L8.50586-6.31836L8.50586-4.19922C8.50586-3.75977 8.79883-3.45703 9.22852-3.45703C9.67773-3.45703 9.9707-3.75977 9.9707-4.19922L9.9707-6.31836L12.0996-6.31836C12.5391-6.31836 12.8418-6.61133 12.8418-7.04102C12.8418-7.48047 12.5391-7.7832 12.0996-7.7832L9.9707-7.7832L9.9707-9.89258C9.9707-10.3418 9.67773-10.6445 9.22852-10.6445C8.79883-10.6445 8.50586-10.3418 8.50586-9.89258L8.50586-7.7832L6.39648-7.7832C5.94727-7.7832 5.64453-7.48047 5.64453-7.04102C5.64453-6.61133 5.94727-6.31836 6.39648-6.31836Z"/>
  </g>
  <g id="" transform="matrix(1 0 0 1 281.506 1933)">
   <path d="M11.709 2.91016C17.1582 2.91016 21.6699-1.61133 21.6699-7.05078C21.6699-12.5 17.1484-17.0117 11.6992-17.0117C6.25977-17.0117 1.74805-12.5 1.74805-7.05078C1.74805-1.61133 6.26953 2.91016 11.709 2.91016ZM11.709 1.25C7.09961 1.25 3.41797-2.44141 3.41797-7.05078C3.41797-11.6602 7.08984-15.3516 11.6992-15.3516C16.3086-15.3516 20-11.6602 20.0098-7.05078C20.0195-2.44141 16.3184 1.25 11.709 1.25ZM7.98828-6.23047L10.8789-6.23047L10.8789-3.32031C10.8789-2.83203 11.2109-2.5 11.6895-2.5C12.1777-2.5 12.5195-2.83203 12.5195-3.32031L12.5195-6.23047L15.4297-6.23047C15.918-6.23047 16.25-6.5625 16.25-7.04102C16.25-7.5293 15.918-7.87109 15.4297-7.87109L12.5195-7.87109L12.5195-10.7617C12.5195-11.2695 12.1777-11.6016 11.6895-11.6016C11.2109-11.6016 10.8789-11.2598 10.8789-10.7617L10.8789-7.87109L7.98828-7.87109C7.48047-7.87109 7.14844-7.5293 7.14844-7.04102C7.14844-6.5625 7.49023-6.23047 7.98828-6.23047Z"/>
  </g>
  <g id="" transform="matrix(1 0 0 1 304.924 1933)">
   <path d="M14.9707 5.66406C21.9336 5.66406 27.6953-0.0976562 27.6953-7.05078C27.6953-14.0137 21.9238-19.7754 14.9609-19.7754C8.00781-19.7754 2.25586-14.0137 2.25586-7.05078C2.25586-0.0976562 8.01758 5.66406 14.9707 5.66406ZM14.9707 3.84766C8.93555 3.84766 4.08203-1.01562 4.08203-7.05078C4.08203-13.0957 8.92578-17.9492 14.9609-17.9492C21.0059-17.9492 25.8594-13.0957 25.8691-7.05078C25.8789-1.01562 21.0156 3.84766 14.9707 3.84766ZM10.0586-6.14258L14.0625-6.14258L14.0625-2.12891C14.0625-1.5918 14.4336-1.2207 14.9512-1.2207C15.4883-1.2207 15.8594-1.5918 15.8594-2.12891L15.8594-6.14258L19.8828-6.14258C20.4102-6.14258 20.791-6.51367 20.791-7.03125C20.791-7.56836 20.4199-7.94922 19.8828-7.94922L15.8594-7.94922L15.8594-11.9531C15.8594-12.5098 15.4883-12.8809 14.9512-12.8809C14.4336-12.8809 14.0625-12.5 14.0625-11.9531L14.0625-7.94922L10.0586-7.94922C9.50195-7.94922 9.13086-7.56836 9.13086-7.03125C9.13086-6.51367 9.51172-6.14258 10.0586-6.14258Z"/>
  </g>
  <text style="stroke:none;fill:black;font-family:-apple-system,&quot;SF Pro Display&quot;,&quot;SF Pro Text&quot;,Helvetica,sans-serif;font-weight:bold;" transform="matrix(1 0 0 1 263 1953)">Design Variations</text>
  <text style="stroke:none;fill:black;font-family:-apple-system,&quot;SF Pro Display&quot;,&quot;SF Pro Text&quot;,Helvetica,sans-serif;" transform="matrix(1 0 0 1 263 1971)">Symbols are supported in up to nine weights and three scales.</text>
  <text style="stroke:none;fill:black;font-family:-apple-system,&quot;SF Pro Display&quot;,&quot;SF Pro Text&quot;,Helvetica,sans-serif;" transform="matrix(1 0 0 1 263 1989)">For optimal layout with text and other symbols, vertically align</text>
  <text style="stroke:none;fill:black;font-family:-apple-system,&quot;SF Pro Display&quot;,&quot;SF Pro Text&quot;,Helvetica,sans-serif;" transform="matrix(1 0 0 1 263 2007)">symbols with the adjacent text.</text>
  <line id="" style="fill:none;stroke:#00AEEF;stroke-width:0.5;opacity:1.0;" x1="776" x2="776" y1="1919" y2="1933"/>
  <g id="" transform="matrix(1 0 0 1 776 1933)">
   <path d="M3.31055 0.126953C3.82812 0.126953 4.08203-0.0683594 4.26758-0.605469L5.52734-4.0625L11.2891-4.0625L12.5488-0.605469C12.7344-0.0683594 12.9883 0.126953 13.4961 0.126953C14.0137 0.126953 14.3457-0.185547 14.3457-0.673828C14.3457-0.839844 14.3164-0.986328 14.2383-1.20117L9.6582-13.3887C9.43359-13.9941 9.0332-14.2871 8.4082-14.2871C7.80273-14.2871 7.39258-13.9941 7.17773-13.3984L2.59766-1.19141C2.51953-0.976562 2.49023-0.830078 2.49023-0.664062C2.49023-0.175781 2.80273 0.126953 3.31055 0.126953ZM6.00586-5.53711L8.37891-12.1094L8.42773-12.1094L10.8008-5.53711Z"/>
  </g>
  <line id="" style="fill:none;stroke:#00AEEF;stroke-width:0.5;opacity:1.0;" x1="792.836" x2="792.836" y1="1919" y2="1933"/>
  <text style="stroke:none;fill:black;font-family:-apple-system,&quot;SF Pro Display&quot;,&quot;SF Pro Text&quot;,Helvetica,sans-serif;font-weight:bold;" transform="matrix(1 0 0 1 776 1953)">Margins</text>
  <text style="stroke:none;fill:black;font-family:-apple-system,&quot;SF Pro Display&quot;,&quot;SF Pro Text&quot;,Helvetica,sans-serif;" transform="matrix(1 0 0 1 776 1971)">Leading and trailing margins on the left and right side of each symbol</text>
  <text style="stroke:none;fill:black;font-family:-apple-system,&quot;SF Pro Display&quot;,&quot;SF Pro Text&quot;,Helvetica,sans-serif;" transform="matrix(1 0 0 1 776 1989)">can be adjusted by modifying the x-location of the margin guidelines.</text>
  <text style="stroke:none;fill:black;font-family:-apple-system,&quot;SF Pro Display&quot;,&quot;SF Pro Text&quot;,Helvetica,sans-serif;" transform="matrix(1 0 0 1 776 2007)">Modifications are automatically applied proportionally to all</text>
  <text style="stroke:none;fill:black;font-family:-apple-system,&quot;SF Pro Display&quot;,&quot;SF Pro Text&quot;,Helvetica,sans-serif;" transform="matrix(1 0 0 1 776 2025)">scales and weights.</text>
  <g id="" transform="matrix(1 0 0 1 1289 1933)">
   <path d="M2.8418 1.86523L4.54102 3.57422C5.40039 4.44336 6.38672 4.38477 7.31445 3.35938L17.4902-7.85156C17.7539-7.76367 18.0273-7.7832 18.3398-7.8418L19.4043-8.03711L20.0684-7.36328L20.0293-6.80664C19.9902-6.30859 20.1172-5.92773 20.6055-5.44922L21.3672-4.70703C21.8457-4.22852 22.4609-4.19922 22.9297-4.66797L25.8398-7.58789C26.3086-8.05664 26.2891-8.65234 25.8105-9.13086L25.0391-9.89258C24.5605-10.3711 24.1895-10.5273 23.7109-10.4883L23.1348-10.4395L22.4902-11.0742L22.7344-12.1973C22.8613-12.7637 22.7051-13.2031 22.1191-13.7891L19.9219-15.9766C16.582-19.2969 12.1484-19.2188 9.25781-16.3281C8.83789-15.918 8.80859-15.3418 9.04297-14.9512C9.27734-14.5898 9.73633-14.3555 10.3809-14.5215C11.8457-14.8633 13.3691-14.9219 14.7949-13.9844L14.209-12.5293C14.0137-12.0508 13.9844-11.6504 14.1113-11.2891L3.04688-0.898438C2.06055 0.0195312 1.98242 0.996094 2.8418 1.86523ZM10.752-15.957C13.1836-17.7344 16.4746-17.4316 18.7012-15.2051L21.1328-12.793C21.3672-12.5586 21.4062-12.373 21.3379-12.0312L21.0156-10.5469L22.5195-9.0625L23.5059-9.12109C23.7598-9.13086 23.8379-9.11133 24.0332-8.91602L24.6094-8.33984L22.168-5.89844L21.5918-6.47461C21.3965-6.66992 21.3672-6.74805 21.377-7.01172L21.4453-7.98828L19.9512-9.47266L18.4277-9.21875C18.1055-9.15039 17.959-9.17969 17.7148-9.41406L15.7129-11.416C15.459-11.6504 15.4297-11.8164 15.5859-12.1875L16.4648-14.2773C14.9023-15.7324 12.8711-16.3574 10.8398-15.7617C10.6836-15.7227 10.625-15.8496 10.752-15.957ZM5.27344 2.30469L4.10156 1.14258C3.63281 0.683594 3.74023 0.341797 4.14062-0.0195312L14.9512-10.1953L16.416-8.71094L6.42578 2.27539C6.07422 2.67578 5.74219 2.77344 5.27344 2.30469Z"/>
  </g>
  <text style="stroke:none;fill:black;font-family:-apple-system,&quot;SF Pro Display&quot;,&quot;SF Pro Text&quot;,Helvetica,sans-serif;font-weight:bold;" transform="matrix(1 0 0 1 1289 1953)">Exporting</text>
  <text style="stroke:none;fill:black;font-family:-apple-system,&quot;SF Pro Display&quot;,&quot;SF Pro Text&quot;,Helvetica,sans-serif;" transform="matrix(1 0 0 1 1289 1971)">Symbols should be outlined when exporting to ensure the</text>
  <text style="stroke:none;fill:black;font-family:-apple-system,&quot;SF Pro Display&quot;,&quot;SF Pro Text&quot;,Helvetica,sans-serif;" transform="matrix(1 0 0 1 1289 1989)">design is preserved when submitting to Xcode.</text>
  <text id="template-version" style="stroke:none;fill:black;font-family:-apple-system,&quot;SF Pro Display&quot;,&quot;SF Pro Text&quot;,Helvetica,sans-serif;text-anchor:end;" transform="matrix(1 0 0 1 3036 1933)">Template v.2.0</text>
  <text style="stroke:none;fill:black;font-family:-apple-system,&quot;SF Pro Display&quot;,&quot;SF Pro Text&quot;,Helvetica,sans-serif;text-anchor:end;" transform="matrix(1 0 0 1 3036 1951)">Requires Xcode 12 or greater</text>
  <text style="stroke:none;fill:black;font-family:-apple-system,&quot;SF Pro Display&quot;,&quot;SF Pro Text&quot;,Helvetica,sans-serif;" transform="matrix(1 0 0 1 263 726)">Small</text>
  <text style="stroke:none;fill:black;font-family:-apple-system,&quot;SF Pro Display&quot;,&quot;SF Pro Text&quot;,Helvetica,sans-serif;" transform="matrix(1 0 0 1 263 1156)">Medium</text>
  <text style="stroke:none;fill:black;font-family:-apple-system,&quot;SF Pro Display&quot;,&quot;SF Pro Text&quot;,Helvetica,sans-serif;" transform="matrix(1 0 0 1 263 1586)">Large</text>
 </g>
 <g id="Guides">
  <g id="H-reference" style="fill:#27AAE1;stroke:none;" transform="matrix(1 0 0 1 339 696)">
   <path d="M0.976562 0L3.66211 0L12.9883-24.4629L45.752-24.4629L55.127 0L57.7637 0L30.6152-70.459L28.125-70.459ZM29.3457-67.1387L29.4434-67.1387L44.873-26.709L13.8672-26.709Z"/>
  </g>
  <line id="Baseline-S" style="fill:none;stroke:#27AAE1;opacity:1;stroke-width:0.5;" x1="263" x2="3036" y1="696" y2="696"/>
  <line id="Capline-S" style="fill:none;stroke:#27AAE1;opacity:1;stroke-width:0.5;" x1="263" x2="3036" y1="625.541" y2="625.541"/>
  <g id="H-reference" style="fill:#27AAE1;stroke:none;" transform="matrix(1 0 0 1 339 1126)">
   <path d="M0.976562 0L3.66211 0L12.9883-24.4629L45.752-24.4629L55.127 0L57.7637 0L30.6152-70.459L28.125-70.459ZM29.3457-67.1387L29.4434-67.1387L44.873-26.709L13.8672-26.709Z"/>
  </g>
  <line id="Baseline-M" style="fill:none;stroke:#27AAE1;opacity:1;stroke-width:0.5;" x1="263" x2="3036" y1="1126" y2="1126"/>
  <line id="Capline-M" style="fill:none;stroke:#27AAE1;opacity:1;stroke-width:0.5;" x1="263" x2="3036" y1="1055.54" y2="1055.54"/>
  <g id="H-reference" style="fill:#27AAE1;stroke:none;" transform="matrix(1 0 0 1 339 1556)">
   <path d="M0.976562 0L3.66211 0L12.9883-24.4629L45.752-24.4629L55.127 0L57.7637 0L30.6152-70.459L28.125-70.459ZM29.3457-67.1387L29.4434-67.1387L44.873-26.709L13.8672-26.709Z"/>
  </g>
  <line id="Baseline-L" style="fill:none;stroke:#27AAE1;opacity:1;stroke-width:0.5;" x1="263" x2="3036" y1="1556" y2="1556"/>
  <line id="Capline-L" style="fill:none;stroke:#27AAE1;opacity:1;stroke-width:0.5;" x1="263" x2="3036" y1="1485.54" y2="1485.54"/>
  <line id="left-margin" x1="1432.064255683975" x2="1432.064255683975" y1="1030.79" y2="1150.12" style="fill:none;stroke:#00AEEF;stroke-width:0.5;opacity:1.0;"/>
  <line id="right-margin" x1="1470.1957443160247" x2="1470.1957443160247" y1="1030.79" y2="1150.12" style="fill:none;stroke:#00AEEF;stroke-width:0.5;opacity:1.0;"/>
 </g>
 <g id="Symbols">
  <g id="Black-L" transform="matrix(1.0,0.0,0.0,1.0,2910.1831771238326,1475.3233447265625)">  <path fill="#000000" xmlns:xlink="http://www.w3.org/1999/xlink" points="20.1,381.92 252.56,130.08 136.33,33.22 136.33,478.78 252.56,381.92 20.1,130.08 " stroke="none" stroke-opacity="1" xml:space="preserve" stroke-linejoin="round" stroke-linecap="round" stroke-dasharray="none" y="0px" x="0px" fill-rule="nonzero" version="1.1" stroke-width="26px" fill-opacity="1" stroke-miterlimit="10" d="M7.316,71.26L48.584,26.552C50.563,24.408,50.343,21.043,48.101,19.174L27.467,1.979C24.145,-0.789,19.102,1.573,19.102,5.897L19.102,84.996C19.102,89.32,24.145,91.682,27.467,88.914L48.101,71.719C50.343,69.851,50.563,66.486,48.584,64.341L7.316,19.633C5.406,17.563,2.179,17.434,0.109,19.345C-1.961,21.255,-2.09,24.482,-0.18,26.552L41.088,71.26L41.571,63.883L20.937,81.078L29.302,84.996L29.302,5.897L20.937,9.816L41.571,27.011L41.088,19.633L-0.18,64.341C-2.09,66.411,-1.961,69.638,0.109,71.549C2.179,73.459,5.406,73.33,7.316,71.26Z"/>
</g>
  <g id="Heavy-L" transform="matrix(1.0,0.0,0.0,1.0,2613.4731771238326,1475.3233447265625)">  <path y="0px" x="0px" stroke-linejoin="round" fill-rule="nonzero" stroke-miterlimit="10" version="1.1" fill="#000000" stroke-dasharray="none" stroke-opacity="1" fill-opacity="1" stroke="none" xml:space="preserve" xmlns:xlink="http://www.w3.org/1999/xlink" stroke-linecap="round" stroke-width="26px" points="20.1,381.92 252.56,130.08 136.33,33.22 136.33,478.78 252.56,381.92 20.1,130.08 " d="M6.906,70.881L48.173,26.173C49.936,24.264,49.74,21.267,47.744,19.603L27.11,2.408C24.152,-0.057,19.66,2.047,19.66,5.897L19.66,84.996C19.66,88.847,24.152,90.95,27.11,88.485L47.744,71.29C49.74,69.626,49.936,66.63,48.173,64.72L6.906,20.012C5.204,18.169,2.331,18.054,0.488,19.755C-1.355,21.457,-1.47,24.33,0.231,26.173L41.499,70.881L41.928,64.312L21.294,81.507L28.744,84.996L28.744,5.897L21.294,9.387L41.928,26.582L41.499,20.012L0.231,64.72C-1.47,66.563,-1.355,69.437,0.488,71.138C2.331,72.84,5.204,72.725,6.906,70.881Z"/>
</g>
  <g id="Bold-L" transform="matrix(1.0,0.0,0.0,1.0,2316.7631771238325,1475.3233447265625)">  <path y="0px" version="1.1" stroke-dasharray="none" stroke-opacity="1" stroke="none" fill-rule="nonzero" fill="#000000" xml:space="preserve" stroke-miterlimit="10" stroke-linejoin="round" stroke-linecap="round" xmlns:xlink="http://www.w3.org/1999/xlink" stroke-width="26px" fill-opacity="1" points="20.1,381.92 252.56,130.08 136.33,33.22 136.33,478.78 252.56,381.92 20.1,130.08 " x="0px" d="M6.495,70.503L47.763,25.794C49.309,24.12,49.137,21.492,47.386,20.033L26.752,2.837C24.158,0.675,20.219,2.52,20.219,5.897L20.219,84.996C20.219,88.373,24.158,90.218,26.752,88.056L47.386,70.861C49.137,69.402,49.309,66.774,47.763,65.099L6.495,20.391C5.003,18.774,2.483,18.673,0.867,20.166C-0.75,21.658,-0.851,24.178,0.641,25.794L41.909,70.503L42.286,64.741L21.652,81.936L28.185,84.996L28.185,5.897L21.652,8.957L42.286,26.153L41.909,20.391L0.641,65.099C-0.851,66.716,-0.75,69.236,0.867,70.728C2.483,72.22,5.003,72.119,6.495,70.503Z"/>
</g>
  <g id="Semibold-L" transform="matrix(1.0,0.0,0.0,1.0,2020.0531771238327,1475.3233447265625)">  <path stroke="none" fill-opacity="1" xmlns:xlink="http://www.w3.org/1999/xlink" stroke-dasharray="none" fill-rule="nonzero" x="0px" points="20.1,381.92 252.56,130.08 136.33,33.22 136.33,478.78 252.56,381.92 20.1,130.08 " stroke-opacity="1" stroke-linecap="round" stroke-linejoin="round" xml:space="preserve" fill="#000000" stroke-miterlimit="10" stroke-width="26px" version="1.1" y="0px" d="M6.085,70.124L47.353,25.416C48.682,23.976,48.534,21.716,47.029,20.462L26.395,3.266C24.164,1.407,20.777,2.994,20.777,5.897L20.777,84.996C20.777,87.9,24.164,89.486,26.395,87.627L47.029,70.432C48.534,69.177,48.682,66.918,47.353,65.478L6.085,20.77C4.802,19.38,2.635,19.293,1.245,20.576C-0.145,21.859,-0.231,24.026,1.052,25.416L42.319,70.124L42.643,65.17L22.01,82.365L27.627,84.996L27.627,5.897L22.01,8.528L42.643,25.724L42.319,20.77L1.052,65.478C-0.231,66.868,-0.145,69.034,1.245,70.317C2.635,71.6,4.802,71.514,6.085,70.124Z"/>
</g>
  <g id="Medium-L" transform="matrix(1.0,0.0,0.0,1.0,1723.3431771238327,1475.3233447265625)">  <path points="20.1,381.92 252.56,130.08 136.33,33.22 136.33,478.78 252.56,381.92 20.1,130.08 " stroke="none" stroke-miterlimit="10" fill-rule="nonzero" y="0px" stroke-dasharray="none" fill-opacity="1" xml:space="preserve" stroke-opacity="1" version="1.1" stroke-width="26px" stroke-linecap="round" stroke-linejoin="round" x="0px" xmlns:xlink="http://www.w3.org/1999/xlink" fill="#000000" d="M5.674,69.745L46.942,25.037C48.055,23.832,47.931,21.941,46.671,20.891L26.037,3.695C24.17,2.14,21.336,3.467,21.336,5.897L21.336,84.996C21.336,87.426,24.17,88.754,26.037,87.198L46.671,70.003C47.931,68.953,48.055,67.062,46.942,65.857L5.674,21.148C4.601,19.985,2.787,19.913,1.624,20.986C0.461,22.06,0.388,23.873,1.462,25.037L42.73,69.745L43.001,65.599L22.367,82.794L27.068,84.996L27.068,5.897L22.367,8.099L43.001,25.295L42.73,21.148L1.462,65.857C0.388,67.02,0.461,68.833,1.624,69.907C2.787,70.981,4.601,70.908,5.674,69.745Z"/>
</g>
  <g id="Regular-L" transform="matrix(1.0,0.0,0.0,1.0,1426.6331771238326,1475.3233447265625)">  <path stroke-linecap="round" points="20.1,381.92 252.56,130.08 136.33,33.22 136.33,478.78 252.56,381.92 20.1,130.08 " stroke="none" stroke-dasharray="none" xml:space="preserve" y="0px" xmlns:xlink="http://www.w3.org/1999/xlink" stroke-miterlimit="10" stroke-opacity="1" stroke-linejoin="round" fill-rule="nonzero" x="0px" fill-opacity="1" stroke-width="26px" version="1.1" fill="#000000" d="M5.264,69.366L46.532,24.658C47.427,23.688,47.328,22.165,46.313,21.32L25.68,4.124C24.176,2.872,21.894,3.941,21.894,5.897L21.894,84.996C21.894,86.953,24.176,88.022,25.68,86.769L46.313,69.574C47.328,68.728,47.427,67.206,46.532,66.235L5.264,21.527C4.4,20.591,2.94,20.532,2.003,21.397C1.066,22.261,1.008,23.721,1.872,24.658L43.14,69.366L43.359,66.028L22.725,83.223L26.51,84.996L26.51,5.897L22.725,7.67L43.359,24.866L43.14,21.527L1.872,66.235C1.008,67.172,1.066,68.632,2.003,69.497C2.94,70.361,4.4,70.303,5.264,69.366Z"/>
</g>
  <g id="Light-L" transform="matrix(1.0,0.0,0.0,1.0,1129.9231771238328,1475.3233447265625)">  <path y="0px" stroke-miterlimit="10" xml:space="preserve" version="1.1" fill-opacity="1" stroke-opacity="1" xmlns:xlink="http://www.w3.org/1999/xlink" x="0px" stroke="none" fill-rule="nonzero" stroke-width="26px" stroke-linecap="round" points="20.1,381.92 252.56,130.08 136.33,33.22 136.33,478.78 252.56,381.92 20.1,130.08 " stroke-dasharray="none" fill="#000000" stroke-linejoin="round" d="M4.981,69.105L46.249,24.397C46.996,23.588,46.913,22.32,46.067,21.615L25.433,4.42C24.181,3.376,22.279,4.267,22.279,5.897L22.279,84.996C22.279,86.627,24.181,87.517,25.433,86.473L46.067,69.278C46.913,68.574,46.996,67.305,46.249,66.496L4.981,21.788C4.261,21.008,3.044,20.959,2.264,21.679C1.483,22.4,1.435,23.617,2.155,24.397L43.423,69.105L43.605,66.323L22.971,83.519L26.125,84.996L26.125,5.897L22.971,7.375L43.605,24.57L43.423,21.788L2.155,66.496C1.435,67.277,1.483,68.494,2.264,69.214C3.044,69.934,4.261,69.886,4.981,69.105Z"/>
</g>
  <g id="Thin-L" transform="matrix(1.0,0.0,0.0,1.0,833.2131771238328,1475.3233447265625)">  <path stroke-width="26px" stroke="none" xml:space="preserve" stroke-linecap="round" stroke-dasharray="none" stroke-opacity="1" fill-rule="nonzero" version="1.1" fill-opacity="1" stroke-linejoin="round" xmlns:xlink="http://www.w3.org/1999/xlink" stroke-miterlimit="10" points="20.1,381.92 252.56,130.08 136.33,33.22 136.33,478.78 252.56,381.92 20.1,130.08 " y="0px" x="0px" fill="#000000" d="M4.699,68.844L45.967,24.136C46.564,23.489,46.497,22.474,45.821,21.911L25.187,4.715C24.185,3.88,22.664,4.593,22.664,5.897L22.664,84.996C22.664,86.3,24.185,87.013,25.187,86.178L45.821,68.983C46.497,68.419,46.564,67.404,45.967,66.757L4.699,22.049C4.122,21.425,3.149,21.386,2.525,21.962C1.9,22.538,1.861,23.512,2.438,24.136L43.705,68.844L43.851,66.619L23.217,83.814L25.741,84.996L25.741,5.897L23.217,7.079L43.851,24.275L43.705,22.049L2.438,66.757C1.861,67.382,1.9,68.355,2.525,68.931C3.149,69.508,4.122,69.469,4.699,68.844Z"/>
</g>
  <g id="Ultralight-L" transform="matrix(1.0,0.0,0.0,1.0,536.5031771238328,1475.3233447265625)">  <path points="20.1,381.92 252.56,130.08 136.33,33.22 136.33,478.78 252.56,381.92 20.1,130.08 " stroke-linejoin="round" xml:space="preserve" stroke-linecap="round" stroke-width="26px" y="0px" stroke-dasharray="none" fill="#000000" stroke-opacity="1" fill-rule="nonzero" fill-opacity="1" xmlns:xlink="http://www.w3.org/1999/xlink" stroke-miterlimit="10" stroke="none" x="0px" version="1.1" d="M4.416,68.583L45.684,23.875C46.132,23.39,46.082,22.629,45.575,22.206L24.941,5.011C24.189,4.385,23.048,4.919,23.048,5.897L23.048,84.996C23.048,85.974,24.189,86.509,24.941,85.882L45.575,68.687C46.082,68.265,46.132,67.503,45.684,67.018L4.416,22.31C3.984,21.842,3.254,21.812,2.786,22.245C2.317,22.677,2.288,23.407,2.72,23.875L43.988,68.583L44.097,66.914L23.463,84.109L25.356,84.996L25.356,5.897L23.463,6.784L44.097,23.979L43.988,22.31L2.72,67.018C2.288,67.486,2.317,68.216,2.786,68.649C3.254,69.081,3.984,69.052,4.416,68.583Z"/>
</g>
  <g id="Black-M" transform="matrix(1.0,0.0,0.0,1.0,2915.6902148246763,1055.5400390625)">  <path fill="#000000" xmlns:xlink="http://www.w3.org/1999/xlink" points="20.1,381.92 252.56,130.08 136.33,33.22 136.33,478.78 252.56,381.92 20.1,130.08 " stroke="none" stroke-opacity="1" xml:space="preserve" stroke-linejoin="round" stroke-linecap="round" stroke-dasharray="none" y="0px" x="0px" fill-rule="nonzero" version="1.1" stroke-width="26px" fill-opacity="1" stroke-miterlimit="10" d="M5.671,55.24L37.662,20.583C39.196,18.921,39.026,16.312,37.288,14.864L21.292,1.534C18.717,-0.612,14.808,1.219,14.808,4.572L14.808,65.888C14.808,69.24,18.717,71.072,21.292,68.926L37.288,55.596C39.026,54.148,39.196,51.539,37.662,49.877L5.671,15.22C4.19,13.615,1.689,13.515,0.084,14.996C-1.52,16.477,-1.62,18.978,-0.139,20.583L31.851,55.24L32.225,49.521L16.23,62.851L22.715,65.888L22.715,4.572L16.23,7.609L32.225,20.939L31.851,15.22L-0.139,49.877C-1.62,51.482,-1.52,53.983,0.084,55.464C1.689,56.945,4.19,56.845,5.671,55.24Z"/>
</g>
  <g id="Heavy-M" transform="matrix(1.0,0.0,0.0,1.0,2618.9802148246763,1055.5400390625)">  <path y="0px" x="0px" stroke-linejoin="round" fill-rule="nonzero" stroke-miterlimit="10" version="1.1" fill="#000000" stroke-dasharray="none" stroke-opacity="1" fill-opacity="1" stroke="none" xml:space="preserve" xmlns:xlink="http://www.w3.org/1999/xlink" stroke-linecap="round" stroke-width="26px" points="20.1,381.92 252.56,130.08 136.33,33.22 136.33,478.78 252.56,381.92 20.1,130.08 " d="M5.353,54.947L37.344,20.289C38.71,18.809,38.558,16.486,37.011,15.197L21.015,1.867C18.722,-0.044,15.241,1.587,15.241,4.572L15.241,65.888C15.241,68.873,18.722,70.504,21.015,68.593L37.011,55.263C38.558,53.974,38.71,51.651,37.344,50.171L5.353,15.513C4.034,14.084,1.807,13.995,0.378,15.314C-1.051,16.633,-1.14,18.86,0.179,20.289L32.169,54.947L32.503,49.854L16.507,63.184L22.282,65.888L22.282,4.572L16.507,7.276L32.503,20.606L32.169,15.513L0.179,50.171C-1.14,51.6,-1.051,53.827,0.378,55.146C1.807,56.465,4.034,56.376,5.353,54.947Z"/>
</g>
  <g id="Bold-M" transform="matrix(1.0,0.0,0.0,1.0,2322.2702148246763,1055.5400390625)">  <path y="0px" version="1.1" stroke-dasharray="none" stroke-opacity="1" stroke="none" fill-rule="nonzero" fill="#000000" xml:space="preserve" stroke-miterlimit="10" stroke-linejoin="round" stroke-linecap="round" xmlns:xlink="http://www.w3.org/1999/xlink" stroke-width="26px" fill-opacity="1" points="20.1,381.92 252.56,130.08 136.33,33.22 136.33,478.78 252.56,381.92 20.1,130.08 " x="0px" d="M5.035,54.653L37.026,19.996C38.224,18.697,38.091,16.66,36.733,15.529L20.738,2.2C18.727,0.523,15.673,1.954,15.673,4.572L15.673,65.888C15.673,68.506,18.727,69.936,20.738,68.26L36.733,54.931C38.091,53.8,38.224,51.763,37.026,50.464L5.035,15.807C3.878,14.554,1.925,14.476,0.672,15.632C-0.581,16.789,-0.66,18.742,0.497,19.996L32.488,54.653L32.78,50.187L16.785,63.516L21.849,65.888L21.849,4.572L16.785,6.944L32.78,20.273L32.488,15.807L0.497,50.464C-0.66,51.717,-0.581,53.671,0.672,54.828C1.925,55.984,3.878,55.906,5.035,54.653Z"/>
</g>
  <g id="Semibold-M" transform="matrix(1.0,0.0,0.0,1.0,2025.5602148246765,1055.5400390625)">  <path stroke="none" fill-opacity="1" xmlns:xlink="http://www.w3.org/1999/xlink" stroke-dasharray="none" fill-rule="nonzero" x="0px" points="20.1,381.92 252.56,130.08 136.33,33.22 136.33,478.78 252.56,381.92 20.1,130.08 " stroke-opacity="1" stroke-linecap="round" stroke-linejoin="round" xml:space="preserve" fill="#000000" stroke-miterlimit="10" stroke-width="26px" version="1.1" y="0px" d="M4.717,54.359L36.707,19.702C37.738,18.586,37.623,16.834,36.456,15.862L20.461,2.532C18.732,1.091,16.106,2.321,16.106,4.572L16.106,65.888C16.106,68.139,18.732,69.369,20.461,67.928L36.456,54.598C37.623,53.626,37.738,51.874,36.707,50.758L4.717,16.1C3.722,15.023,2.043,14.956,0.965,15.95C-0.112,16.945,-0.179,18.625,0.815,19.702L32.806,54.359L33.057,50.519L17.062,63.849L21.416,65.888L21.416,4.572L17.062,6.611L33.057,19.941L32.806,16.1L0.815,50.758C-0.179,51.835,-0.112,53.515,0.965,54.51C2.043,55.504,3.722,55.437,4.717,54.359Z"/>
</g>
  <g id="Medium-M" transform="matrix(1.0,0.0,0.0,1.0,1728.8502148246764,1055.5400390625)">  <path points="20.1,381.92 252.56,130.08 136.33,33.22 136.33,478.78 252.56,381.92 20.1,130.08 " stroke="none" stroke-miterlimit="10" fill-rule="nonzero" y="0px" stroke-dasharray="none" fill-opacity="1" xml:space="preserve" stroke-opacity="1" version="1.1" stroke-width="26px" stroke-linecap="round" stroke-linejoin="round" x="0px" xmlns:xlink="http://www.w3.org/1999/xlink" fill="#000000" d="M4.399,54.066L36.389,19.408C37.252,18.474,37.156,17.008,36.179,16.194L20.184,2.865C18.737,1.659,16.539,2.688,16.539,4.572L16.539,65.888C16.539,67.772,18.737,68.801,20.184,67.595L36.179,54.266C37.156,53.452,37.252,51.986,36.389,51.052L4.399,16.394C3.566,15.492,2.161,15.436,1.259,16.269C0.357,17.101,0.301,18.507,1.133,19.408L33.124,54.066L33.334,50.852L17.339,64.181L20.983,65.888L20.983,4.572L17.339,6.279L33.334,19.608L33.124,16.394L1.133,51.052C0.301,51.953,0.357,53.359,1.259,54.191C2.161,55.024,3.566,54.968,4.399,54.066Z"/>
</g>
  <g id="Regular-M" transform="matrix(1.0,0.0,0.0,1.0,1432.1402148246764,1055.5400390625)">  <path stroke-linecap="round" points="20.1,381.92 252.56,130.08 136.33,33.22 136.33,478.78 252.56,381.92 20.1,130.08 " stroke="none" stroke-dasharray="none" xml:space="preserve" y="0px" xmlns:xlink="http://www.w3.org/1999/xlink" stroke-miterlimit="10" stroke-opacity="1" stroke-linejoin="round" fill-rule="nonzero" x="0px" fill-opacity="1" stroke-width="26px" version="1.1" fill="#000000" d="M4.081,53.772L36.071,19.115C36.765,18.362,36.688,17.182,35.902,16.527L19.907,3.197C18.741,2.226,16.972,3.055,16.972,4.572L16.972,65.888C16.972,67.405,18.741,68.234,19.907,67.263L35.902,53.933C36.688,53.278,36.765,52.097,36.071,51.345L4.081,16.688C3.411,15.962,2.279,15.916,1.553,16.587C0.827,17.257,0.781,18.389,1.452,19.115L33.442,53.772L33.611,51.184L17.616,64.514L20.55,65.888L20.55,4.572L17.616,5.946L33.611,19.276L33.442,16.688L1.452,51.345C0.781,52.071,0.827,53.203,1.553,53.873C2.279,54.543,3.411,54.498,4.081,53.772Z"/>
</g>
  <g id="Light-M" transform="matrix(1.0,0.0,0.0,1.0,1135.4302148246766,1055.5400390625)">  <path y="0px" stroke-miterlimit="10" xml:space="preserve" version="1.1" fill-opacity="1" stroke-opacity="1" xmlns:xlink="http://www.w3.org/1999/xlink" x="0px" stroke="none" fill-rule="nonzero" stroke-width="26px" stroke-linecap="round" points="20.1,381.92 252.56,130.08 136.33,33.22 136.33,478.78 252.56,381.92 20.1,130.08 " stroke-dasharray="none" fill="#000000" stroke-linejoin="round" d="M3.862,53.57L35.852,18.912C36.431,18.286,36.366,17.302,35.711,16.756L19.716,3.426C18.745,2.617,17.27,3.308,17.27,4.572L17.27,65.888C17.27,67.152,18.745,67.843,19.716,67.034L35.711,53.704C36.366,53.158,36.431,52.174,35.852,51.548L3.862,16.89C3.303,16.285,2.36,16.247,1.755,16.806C1.15,17.364,1.112,18.307,1.671,18.912L33.661,53.57L33.802,51.413L17.807,64.743L20.252,65.888L20.252,4.572L17.807,5.717L33.802,19.047L33.661,16.89L1.671,51.548C1.112,52.153,1.15,53.096,1.755,53.654C2.36,54.213,3.303,54.175,3.862,53.57Z"/>
</g>
  <g id="Thin-M" transform="matrix(1.0,0.0,0.0,1.0,838.7202148246765,1055.5400390625)">  <path stroke-width="26px" stroke="none" xml:space="preserve" stroke-linecap="round" stroke-dasharray="none" stroke-opacity="1" fill-rule="nonzero" version="1.1" fill-opacity="1" stroke-linejoin="round" xmlns:xlink="http://www.w3.org/1999/xlink" stroke-miterlimit="10" points="20.1,381.92 252.56,130.08 136.33,33.22 136.33,478.78 252.56,381.92 20.1,130.08 " y="0px" x="0px" fill="#000000" d="M3.643,53.368L35.633,18.71C36.096,18.209,36.044,17.422,35.52,16.985L19.525,3.655C18.748,3.008,17.569,3.56,17.569,4.572L17.569,65.888C17.569,66.9,18.748,67.452,19.525,66.805L35.52,53.475C36.044,53.038,36.096,52.251,35.633,51.75L3.643,17.092C3.196,16.608,2.441,16.578,1.957,17.025C1.473,17.472,1.443,18.226,1.89,18.71L33.88,53.368L33.993,51.642L17.998,64.972L19.954,65.888L19.954,4.572L17.998,5.488L33.993,18.817L33.88,17.092L1.89,51.75C1.443,52.234,1.473,52.988,1.957,53.435C2.441,53.882,3.196,53.852,3.643,53.368Z"/>
</g>
  <g id="Ultralight-M" transform="matrix(1.0,0.0,0.0,1.0,542.0102148246765,1055.5400390625)">  <path points="20.1,381.92 252.56,130.08 136.33,33.22 136.33,478.78 252.56,381.92 20.1,130.08 " stroke-linejoin="round" xml:space="preserve" stroke-linecap="round" stroke-width="26px" y="0px" stroke-dasharray="none" fill="#000000" stroke-opacity="1" fill-rule="nonzero" fill-opacity="1" xmlns:xlink="http://www.w3.org/1999/xlink" stroke-miterlimit="10" stroke="none" x="0px" version="1.1" d="M3.423,53.165L35.414,18.508C35.761,18.132,35.722,17.542,35.329,17.214L19.334,3.884C18.751,3.399,17.867,3.813,17.867,4.572L17.867,65.888C17.867,66.647,18.751,67.061,19.334,66.575L35.329,53.246C35.722,52.918,35.761,52.328,35.414,51.952L3.423,17.295C3.088,16.931,2.522,16.909,2.159,17.244C1.796,17.579,1.774,18.145,2.109,18.508L34.099,53.165L34.184,51.872L18.189,65.201L19.656,65.888L19.656,4.572L18.189,5.259L34.184,18.588L34.099,17.295L2.109,51.952C1.774,52.315,1.796,52.881,2.159,53.216C2.522,53.551,3.088,53.528,3.423,53.165Z"/>
</g>
  <g id="Black-S" transform="matrix(1.0,0.0,0.0,1.0,2919.8109982077217,633.1849448242187)">  <path fill="#000000" xmlns:xlink="http://www.w3.org/1999/xlink" points="20.1,381.92 252.56,130.08 136.33,33.22 136.33,478.78 252.56,381.92 20.1,130.08 " stroke="none" stroke-opacity="1" xml:space="preserve" stroke-linejoin="round" stroke-linecap="round" stroke-dasharray="none" y="0px" x="0px" fill-rule="nonzero" version="1.1" stroke-width="26px" fill-opacity="1" stroke-miterlimit="10" d="M4.441,43.253L29.489,16.116C30.691,14.815,30.557,12.772,29.196,11.638L16.672,1.201C14.656,-0.479,11.594,0.955,11.594,3.58L11.594,51.591C11.594,54.215,14.656,55.649,16.672,53.969L29.196,43.532C30.557,42.398,30.691,40.355,29.489,39.054L4.441,11.917C3.281,10.661,1.322,10.582,0.066,11.742C-1.19,12.902,-1.269,14.86,-0.109,16.116L24.94,43.253L25.233,38.775L12.708,49.212L17.786,51.591L17.786,3.58L12.708,5.958L25.233,16.395L24.94,11.917L-0.109,39.054C-1.269,40.31,-1.19,42.269,0.066,43.428C1.322,44.588,3.281,44.51,4.441,43.253Z"/>
</g>
  <g id="Heavy-S" transform="matrix(1.0,0.0,0.0,1.0,2623.1009982077217,633.1849448242187)">  <path y="0px" x="0px" stroke-linejoin="round" fill-rule="nonzero" stroke-miterlimit="10" version="1.1" fill="#000000" stroke-dasharray="none" stroke-opacity="1" fill-opacity="1" stroke="none" xml:space="preserve" xmlns:xlink="http://www.w3.org/1999/xlink" stroke-linecap="round" stroke-width="26px" points="20.1,381.92 252.56,130.08 136.33,33.22 136.33,478.78 252.56,381.92 20.1,130.08 " d="M4.192,43.023L29.24,15.887C30.31,14.727,30.191,12.909,28.979,11.899L16.455,1.462C14.659,-0.035,11.933,1.242,11.933,3.58L11.933,51.591C11.933,53.928,14.659,55.205,16.455,53.708L28.979,43.271C30.191,42.261,30.31,40.443,29.24,39.284L4.192,12.147C3.159,11.028,1.415,10.958,0.296,11.991C-0.823,13.024,-0.893,14.768,0.14,15.887L25.189,43.023L25.45,39.036L12.925,49.473L17.447,51.591L17.447,3.58L12.925,5.697L25.45,16.134L25.189,12.147L0.14,39.284C-0.893,40.402,-0.823,42.147,0.296,43.179C1.415,44.212,3.159,44.142,4.192,43.023Z"/>
</g>
  <g id="Bold-S" transform="matrix(1.0,0.0,0.0,1.0,2326.3909982077216,633.1849448242187)">  <path y="0px" version="1.1" stroke-dasharray="none" stroke-opacity="1" stroke="none" fill-rule="nonzero" fill="#000000" xml:space="preserve" stroke-miterlimit="10" stroke-linejoin="round" stroke-linecap="round" xmlns:xlink="http://www.w3.org/1999/xlink" stroke-width="26px" fill-opacity="1" points="20.1,381.92 252.56,130.08 136.33,33.22 136.33,478.78 252.56,381.92 20.1,130.08 " x="0px" d="M3.942,42.793L28.991,15.657C29.929,14.64,29.825,13.045,28.762,12.159L16.238,1.722C14.663,0.41,12.272,1.53,12.272,3.58L12.272,51.591C12.272,53.64,14.663,54.76,16.238,53.448L28.762,43.011C29.825,42.125,29.929,40.53,28.991,39.514L3.942,12.377C3.037,11.396,1.507,11.334,0.526,12.24C-0.455,13.146,-0.516,14.675,0.389,15.657L25.438,42.793L25.667,39.296L13.142,49.733L17.108,51.591L17.108,3.58L13.142,5.437L25.667,15.874L25.438,12.377L0.389,39.514C-0.516,40.495,-0.455,42.024,0.526,42.93C1.507,43.836,3.037,43.775,3.942,42.793Z"/>
</g>
  <g id="Semibold-S" transform="matrix(1.0,0.0,0.0,1.0,2029.6809982077216,633.1849448242187)">  <path stroke="none" fill-opacity="1" xmlns:xlink="http://www.w3.org/1999/xlink" stroke-dasharray="none" fill-rule="nonzero" x="0px" points="20.1,381.92 252.56,130.08 136.33,33.22 136.33,478.78 252.56,381.92 20.1,130.08 " stroke-opacity="1" stroke-linecap="round" stroke-linejoin="round" xml:space="preserve" fill="#000000" stroke-miterlimit="10" stroke-width="26px" version="1.1" y="0px" d="M3.693,42.563L28.742,15.427C29.549,14.553,29.459,13.181,28.545,12.42L16.021,1.983C14.667,0.854,12.611,1.817,12.611,3.58L12.611,51.591C12.611,53.353,14.667,54.316,16.021,53.188L28.545,42.75C29.459,41.989,29.549,40.618,28.742,39.744L3.693,12.607C2.915,11.763,1.6,11.71,0.756,12.489C-0.088,13.268,-0.14,14.583,0.638,15.427L25.687,42.563L25.884,39.557L13.359,49.994L16.769,51.591L16.769,3.58L13.359,5.177L25.884,15.614L25.687,12.607L0.638,39.744C-0.14,40.587,-0.088,41.902,0.756,42.681C1.6,43.46,2.915,43.407,3.693,42.563Z"/>
</g>
  <g id="Medium-S" transform="matrix(1.0,0.0,0.0,1.0,1732.9709982077215,633.1849448242187)">  <path points="20.1,381.92 252.56,130.08 136.33,33.22 136.33,478.78 252.56,381.92 20.1,130.08 " stroke="none" stroke-miterlimit="10" fill-rule="nonzero" y="0px" stroke-dasharray="none" fill-opacity="1" xml:space="preserve" stroke-opacity="1" version="1.1" stroke-width="26px" stroke-linecap="round" stroke-linejoin="round" x="0px" xmlns:xlink="http://www.w3.org/1999/xlink" fill="#000000" d="M3.444,42.334L28.493,15.197C29.168,14.465,29.093,13.317,28.328,12.68L15.804,2.243C14.671,1.299,12.95,2.105,12.95,3.58L12.95,51.591C12.95,53.066,14.671,53.871,15.804,52.927L28.328,42.49C29.093,41.853,29.168,40.705,28.493,39.973L3.444,12.837C2.793,12.131,1.692,12.087,0.986,12.738C0.28,13.39,0.236,14.491,0.887,15.197L25.936,42.334L26.101,39.817L13.576,50.254L16.43,51.591L16.43,3.58L13.576,4.916L26.101,15.353L25.936,12.837L0.887,39.973C0.236,40.679,0.28,41.78,0.986,42.432C1.692,43.084,2.793,43.04,3.444,42.334Z"/>
</g>
  <g id="Regular-S" transform="matrix(1.0,0.0,0.0,1.0,1436.2609982077215,633.1849448242187)">  <path stroke-linecap="round" points="20.1,381.92 252.56,130.08 136.33,33.22 136.33,478.78 252.56,381.92 20.1,130.08 " stroke="none" stroke-dasharray="none" xml:space="preserve" y="0px" xmlns:xlink="http://www.w3.org/1999/xlink" stroke-miterlimit="10" stroke-opacity="1" stroke-linejoin="round" fill-rule="nonzero" x="0px" fill-opacity="1" stroke-width="26px" version="1.1" fill="#000000" d="M3.195,42.104L28.244,14.967C28.787,14.378,28.727,13.454,28.111,12.941L15.587,2.503C14.675,1.743,13.289,2.392,13.289,3.58L13.289,51.591C13.289,52.778,14.675,53.427,15.587,52.667L28.111,42.23C28.727,41.716,28.787,40.792,28.244,40.203L3.195,13.067C2.67,12.498,1.784,12.463,1.216,12.987C0.647,13.512,0.612,14.398,1.137,14.967L26.185,42.104L26.318,40.077L13.793,50.514L16.091,51.591L16.091,3.58L13.793,4.656L26.318,15.093L26.185,13.067L1.137,40.203C0.612,40.772,0.647,41.658,1.216,42.183C1.784,42.708,2.67,42.672,3.195,42.104Z"/>
</g>
  <g id="Light-S" transform="matrix(1.0,0.0,0.0,1.0,1139.5509982077217,633.1849448242187)">  <path y="0px" stroke-miterlimit="10" xml:space="preserve" version="1.1" fill-opacity="1" stroke-opacity="1" xmlns:xlink="http://www.w3.org/1999/xlink" x="0px" stroke="none" fill-rule="nonzero" stroke-width="26px" stroke-linecap="round" points="20.1,381.92 252.56,130.08 136.33,33.22 136.33,478.78 252.56,381.92 20.1,130.08 " stroke-dasharray="none" fill="#000000" stroke-linejoin="round" d="M3.024,41.945L28.072,14.808C28.525,14.318,28.475,13.547,27.962,13.12L15.437,2.683C14.677,2.049,13.523,2.59,13.523,3.58L13.523,51.591C13.523,52.58,14.677,53.121,15.437,52.487L27.962,42.05C28.475,41.623,28.525,40.853,28.072,40.362L3.024,13.225C2.586,12.751,1.848,12.722,1.374,13.159C0.9,13.596,0.871,14.335,1.308,14.808L26.357,41.945L26.467,40.257L13.943,50.694L15.857,51.591L15.857,3.58L13.943,4.476L26.467,14.913L26.357,13.225L1.308,40.362C0.871,40.835,0.9,41.574,1.374,42.011C1.848,42.449,2.586,42.419,3.024,41.945Z"/>
</g>
  <g id="Thin-S" transform="matrix(1.0,0.0,0.0,1.0,842.8409982077218,633.1849448242187)">  <path stroke-width="26px" stroke="none" xml:space="preserve" stroke-linecap="round" stroke-dasharray="none" stroke-opacity="1" fill-rule="nonzero" version="1.1" fill-opacity="1" stroke-linejoin="round" xmlns:xlink="http://www.w3.org/1999/xlink" stroke-miterlimit="10" points="20.1,381.92 252.56,130.08 136.33,33.22 136.33,478.78 252.56,381.92 20.1,130.08 " y="0px" x="0px" fill="#000000" d="M2.852,41.787L27.901,14.65C28.263,14.257,28.223,13.641,27.812,13.299L15.288,2.862C14.68,2.355,13.756,2.788,13.756,3.58L13.756,51.591C13.756,52.382,14.68,52.815,15.288,52.308L27.812,41.871C28.223,41.529,28.263,40.913,27.901,40.52L2.852,13.383C2.502,13.004,1.911,12.981,1.532,13.33C1.153,13.68,1.13,14.271,1.48,14.65L26.528,41.787L26.617,40.436L14.092,50.873L15.624,51.591L15.624,3.58L14.092,4.297L26.617,14.734L26.528,13.383L1.48,40.52C1.13,40.899,1.153,41.49,1.532,41.84C1.911,42.19,2.502,42.166,2.852,41.787Z"/>
</g>
  <g id="Ultralight-S" transform="matrix(1.0,0.0,0.0,1.0,546.1309982077217,633.1849448242187)">  <path points="20.1,381.92 252.56,130.08 136.33,33.22 136.33,478.78 252.56,381.92 20.1,130.08 " stroke-linejoin="round" xml:space="preserve" stroke-linecap="round" stroke-width="26px" y="0px" stroke-dasharray="none" fill="#000000" stroke-opacity="1" fill-rule="nonzero" fill-opacity="1" xmlns:xlink="http://www.w3.org/1999/xlink" stroke-miterlimit="10" stroke="none" x="0px" version="1.1" d="M2.681,41.629L27.729,14.492C28.001,14.197,27.971,13.735,27.663,13.479L15.139,3.042C14.682,2.661,13.99,2.986,13.99,3.58L13.99,51.591C13.99,52.184,14.682,52.509,15.139,52.129L27.663,41.692C27.971,41.435,28.001,40.973,27.729,40.678L2.681,13.542C2.418,13.257,1.975,13.24,1.691,13.502C1.407,13.764,1.389,14.207,1.651,14.492L26.7,41.629L26.766,40.615L14.242,51.052L15.391,51.591L15.391,3.58L14.242,4.118L26.766,14.555L26.7,13.542L1.651,40.678C1.389,40.963,1.407,41.406,1.691,41.668C1.975,41.931,2.418,41.913,2.681,41.629Z"/>
</g>
 </g>
</svg>
