<?xml version="1.0" encoding="UTF-8"?>
<!--Generator: CustomSymbols by @serious_bret-->
<!DOCTYPE svg
PUBLIC "-//W3C//DTD SVG 1.1//EN"
       "http://www.w3.org/Graphics/SVG/1.1/DTD/svg11.dtd">
<svg version="1.1" xmlns="http://www.w3.org/2000/svg" xmlns:xlink="http://www.w3.org/1999/xlink" width="3300" height="2200">
 <g id="Notes">
  <rect height="2200" id="artboard" style="fill:white;opacity:1" width="3300" x="0" y="0"/>
  <line id="" style="fill:none;stroke:black;opacity:1;stroke-width:0.5;" x1="263" x2="3036" y1="292" y2="292"/>
  <text id="reftext1" style="stroke:none;fill:black;font-family:-apple-system,&quot;SF Pro Display&quot;,&quot;SF Pro Text&quot;,Helvetica,sans-serif;font-weight:bold;" transform="matrix(1 0 0 1 263 322)">Weight/Scale Variations</text>
  <text id="reftext2" style="stroke:none;fill:black;font-family:-apple-system,&quot;SF Pro Display&quot;,&quot;SF Pro Text&quot;,Helvetica,sans-serif;text-anchor:middle;" transform="matrix(1 0 0 1 559.711 322)">Ultralight</text>
  <text style="stroke:none;fill:black;font-family:-apple-system,&quot;SF Pro Display&quot;,&quot;SF Pro Text&quot;,Helvetica,sans-serif;text-anchor:middle;" transform="matrix(1 0 0 1 856.422 322)">Thin</text>
  <text style="stroke:none;fill:black;font-family:-apple-system,&quot;SF Pro Display&quot;,&quot;SF Pro Text&quot;,Helvetica,sans-serif;text-anchor:middle;" transform="matrix(1 0 0 1 1153.13 322)">Light</text>
  <text style="stroke:none;fill:black;font-family:-apple-system,&quot;SF Pro Display&quot;,&quot;SF Pro Text&quot;,Helvetica,sans-serif;text-anchor:middle;" transform="matrix(1 0 0 1 1449.84 322)">Regular</text>
  <text style="stroke:none;fill:black;font-family:-apple-system,&quot;SF Pro Display&quot;,&quot;SF Pro Text&quot;,Helvetica,sans-serif;text-anchor:middle;" transform="matrix(1 0 0 1 1746.56 322)">Medium</text>
  <text style="stroke:none;fill:black;font-family:-apple-system,&quot;SF Pro Display&quot;,&quot;SF Pro Text&quot;,Helvetica,sans-serif;text-anchor:middle;" transform="matrix(1 0 0 1 2043.27 322)">Semibold</text>
  <text style="stroke:none;fill:black;font-family:-apple-system,&quot;SF Pro Display&quot;,&quot;SF Pro Text&quot;,Helvetica,sans-serif;text-anchor:middle;" transform="matrix(1 0 0 1 2339.98 322)">Bold</text>
  <text style="stroke:none;fill:black;font-family:-apple-system,&quot;SF Pro Display&quot;,&quot;SF Pro Text&quot;,Helvetica,sans-serif;text-anchor:middle;" transform="matrix(1 0 0 1 2636.69 322)">Heavy</text>
  <text style="stroke:none;fill:black;font-family:-apple-system,&quot;SF Pro Display&quot;,&quot;SF Pro Text&quot;,Helvetica,sans-serif;text-anchor:middle;" transform="matrix(1 0 0 1 2933.4 322)">Black</text>
  <line id="" style="fill:none;stroke:black;opacity:1;stroke-width:0.5;" x1="263" x2="3036" y1="1903" y2="1903"/>
  <g id="" transform="matrix(1 0 0 1 263 1933)">
   <path d="M9.24805 0.830078C13.5547 0.830078 17.1387-2.74414 17.1387-7.05078C17.1387-11.3574 13.5449-14.9316 9.23828-14.9316C4.94141-14.9316 1.36719-11.3574 1.36719-7.05078C1.36719-2.74414 4.95117 0.830078 9.24805 0.830078ZM9.24805-0.654297C5.70312-0.654297 2.87109-3.49609 2.87109-7.05078C2.87109-10.6055 5.69336-13.4473 9.23828-13.4473C12.793-13.4473 15.6348-10.6055 15.6445-7.05078C15.6543-3.49609 12.8027-0.654297 9.24805-0.654297ZM6.39648-6.31836L8.50586-6.31836L8.50586-4.19922C8.50586-3.75977 8.79883-3.45703 9.22852-3.45703C9.67773-3.45703 9.9707-3.75977 9.9707-4.19922L9.9707-6.31836L12.0996-6.31836C12.5391-6.31836 12.8418-6.61133 12.8418-7.04102C12.8418-7.48047 12.5391-7.7832 12.0996-7.7832L9.9707-7.7832L9.9707-9.89258C9.9707-10.3418 9.67773-10.6445 9.22852-10.6445C8.79883-10.6445 8.50586-10.3418 8.50586-9.89258L8.50586-7.7832L6.39648-7.7832C5.94727-7.7832 5.64453-7.48047 5.64453-7.04102C5.64453-6.61133 5.94727-6.31836 6.39648-6.31836Z"/>
  </g>
  <g id="" transform="matrix(1 0 0 1 281.506 1933)">
   <path d="M11.709 2.91016C17.1582 2.91016 21.6699-1.61133 21.6699-7.05078C21.6699-12.5 17.1484-17.0117 11.6992-17.0117C6.25977-17.0117 1.74805-12.5 1.74805-7.05078C1.74805-1.61133 6.26953 2.91016 11.709 2.91016ZM11.709 1.25C7.09961 1.25 3.41797-2.44141 3.41797-7.05078C3.41797-11.6602 7.08984-15.3516 11.6992-15.3516C16.3086-15.3516 20-11.6602 20.0098-7.05078C20.0195-2.44141 16.3184 1.25 11.709 1.25ZM7.98828-6.23047L10.8789-6.23047L10.8789-3.32031C10.8789-2.83203 11.2109-2.5 11.6895-2.5C12.1777-2.5 12.5195-2.83203 12.5195-3.32031L12.5195-6.23047L15.4297-6.23047C15.918-6.23047 16.25-6.5625 16.25-7.04102C16.25-7.5293 15.918-7.87109 15.4297-7.87109L12.5195-7.87109L12.5195-10.7617C12.5195-11.2695 12.1777-11.6016 11.6895-11.6016C11.2109-11.6016 10.8789-11.2598 10.8789-10.7617L10.8789-7.87109L7.98828-7.87109C7.48047-7.87109 7.14844-7.5293 7.14844-7.04102C7.14844-6.5625 7.49023-6.23047 7.98828-6.23047Z"/>
  </g>
  <g id="" transform="matrix(1 0 0 1 304.924 1933)">
   <path d="M14.9707 5.66406C21.9336 5.66406 27.6953-0.0976562 27.6953-7.05078C27.6953-14.0137 21.9238-19.7754 14.9609-19.7754C8.00781-19.7754 2.25586-14.0137 2.25586-7.05078C2.25586-0.0976562 8.01758 5.66406 14.9707 5.66406ZM14.9707 3.84766C8.93555 3.84766 4.08203-1.01562 4.08203-7.05078C4.08203-13.0957 8.92578-17.9492 14.9609-17.9492C21.0059-17.9492 25.8594-13.0957 25.8691-7.05078C25.8789-1.01562 21.0156 3.84766 14.9707 3.84766ZM10.0586-6.14258L14.0625-6.14258L14.0625-2.12891C14.0625-1.5918 14.4336-1.2207 14.9512-1.2207C15.4883-1.2207 15.8594-1.5918 15.8594-2.12891L15.8594-6.14258L19.8828-6.14258C20.4102-6.14258 20.791-6.51367 20.791-7.03125C20.791-7.56836 20.4199-7.94922 19.8828-7.94922L15.8594-7.94922L15.8594-11.9531C15.8594-12.5098 15.4883-12.8809 14.9512-12.8809C14.4336-12.8809 14.0625-12.5 14.0625-11.9531L14.0625-7.94922L10.0586-7.94922C9.50195-7.94922 9.13086-7.56836 9.13086-7.03125C9.13086-6.51367 9.51172-6.14258 10.0586-6.14258Z"/>
  </g>
  <text style="stroke:none;fill:black;font-family:-apple-system,&quot;SF Pro Display&quot;,&quot;SF Pro Text&quot;,Helvetica,sans-serif;font-weight:bold;" transform="matrix(1 0 0 1 263 1953)">Design Variations</text>
  <text style="stroke:none;fill:black;font-family:-apple-system,&quot;SF Pro Display&quot;,&quot;SF Pro Text&quot;,Helvetica,sans-serif;" transform="matrix(1 0 0 1 263 1971)">Symbols are supported in up to nine weights and three scales.</text>
  <text style="stroke:none;fill:black;font-family:-apple-system,&quot;SF Pro Display&quot;,&quot;SF Pro Text&quot;,Helvetica,sans-serif;" transform="matrix(1 0 0 1 263 1989)">For optimal layout with text and other symbols, vertically align</text>
  <text style="stroke:none;fill:black;font-family:-apple-system,&quot;SF Pro Display&quot;,&quot;SF Pro Text&quot;,Helvetica,sans-serif;" transform="matrix(1 0 0 1 263 2007)">symbols with the adjacent text.</text>
  <line id="" style="fill:none;stroke:#00AEEF;stroke-width:0.5;opacity:1.0;" x1="776" x2="776" y1="1919" y2="1933"/>
  <g id="" transform="matrix(1 0 0 1 776 1933)">
   <path d="M3.31055 0.126953C3.82812 0.126953 4.08203-0.0683594 4.26758-0.605469L5.52734-4.0625L11.2891-4.0625L12.5488-0.605469C12.7344-0.0683594 12.9883 0.126953 13.4961 0.126953C14.0137 0.126953 14.3457-0.185547 14.3457-0.673828C14.3457-0.839844 14.3164-0.986328 14.2383-1.20117L9.6582-13.3887C9.43359-13.9941 9.0332-14.2871 8.4082-14.2871C7.80273-14.2871 7.39258-13.9941 7.17773-13.3984L2.59766-1.19141C2.51953-0.976562 2.49023-0.830078 2.49023-0.664062C2.49023-0.175781 2.80273 0.126953 3.31055 0.126953ZM6.00586-5.53711L8.37891-12.1094L8.42773-12.1094L10.8008-5.53711Z"/>
  </g>
  <line id="" style="fill:none;stroke:#00AEEF;stroke-width:0.5;opacity:1.0;" x1="792.836" x2="792.836" y1="1919" y2="1933"/>
  <text style="stroke:none;fill:black;font-family:-apple-system,&quot;SF Pro Display&quot;,&quot;SF Pro Text&quot;,Helvetica,sans-serif;font-weight:bold;" transform="matrix(1 0 0 1 776 1953)">Margins</text>
  <text style="stroke:none;fill:black;font-family:-apple-system,&quot;SF Pro Display&quot;,&quot;SF Pro Text&quot;,Helvetica,sans-serif;" transform="matrix(1 0 0 1 776 1971)">Leading and trailing margins on the left and right side of each symbol</text>
  <text style="stroke:none;fill:black;font-family:-apple-system,&quot;SF Pro Display&quot;,&quot;SF Pro Text&quot;,Helvetica,sans-serif;" transform="matrix(1 0 0 1 776 1989)">can be adjusted by modifying the x-location of the margin guidelines.</text>
  <text style="stroke:none;fill:black;font-family:-apple-system,&quot;SF Pro Display&quot;,&quot;SF Pro Text&quot;,Helvetica,sans-serif;" transform="matrix(1 0 0 1 776 2007)">Modifications are automatically applied proportionally to all</text>
  <text style="stroke:none;fill:black;font-family:-apple-system,&quot;SF Pro Display&quot;,&quot;SF Pro Text&quot;,Helvetica,sans-serif;" transform="matrix(1 0 0 1 776 2025)">scales and weights.</text>
  <g id="" transform="matrix(1 0 0 1 1289 1933)">
   <path d="M2.8418 1.86523L4.54102 3.57422C5.40039 4.44336 6.38672 4.38477 7.31445 3.35938L17.4902-7.85156C17.7539-7.76367 18.0273-7.7832 18.3398-7.8418L19.4043-8.03711L20.0684-7.36328L20.0293-6.80664C19.9902-6.30859 20.1172-5.92773 20.6055-5.44922L21.3672-4.70703C21.8457-4.22852 22.4609-4.19922 22.9297-4.66797L25.8398-7.58789C26.3086-8.05664 26.2891-8.65234 25.8105-9.13086L25.0391-9.89258C24.5605-10.3711 24.1895-10.5273 23.7109-10.4883L23.1348-10.4395L22.4902-11.0742L22.7344-12.1973C22.8613-12.7637 22.7051-13.2031 22.1191-13.7891L19.9219-15.9766C16.582-19.2969 12.1484-19.2188 9.25781-16.3281C8.83789-15.918 8.80859-15.3418 9.04297-14.9512C9.27734-14.5898 9.73633-14.3555 10.3809-14.5215C11.8457-14.8633 13.3691-14.9219 14.7949-13.9844L14.209-12.5293C14.0137-12.0508 13.9844-11.6504 14.1113-11.2891L3.04688-0.898438C2.06055 0.0195312 1.98242 0.996094 2.8418 1.86523ZM10.752-15.957C13.1836-17.7344 16.4746-17.4316 18.7012-15.2051L21.1328-12.793C21.3672-12.5586 21.4062-12.373 21.3379-12.0312L21.0156-10.5469L22.5195-9.0625L23.5059-9.12109C23.7598-9.13086 23.8379-9.11133 24.0332-8.91602L24.6094-8.33984L22.168-5.89844L21.5918-6.47461C21.3965-6.66992 21.3672-6.74805 21.377-7.01172L21.4453-7.98828L19.9512-9.47266L18.4277-9.21875C18.1055-9.15039 17.959-9.17969 17.7148-9.41406L15.7129-11.416C15.459-11.6504 15.4297-11.8164 15.5859-12.1875L16.4648-14.2773C14.9023-15.7324 12.8711-16.3574 10.8398-15.7617C10.6836-15.7227 10.625-15.8496 10.752-15.957ZM5.27344 2.30469L4.10156 1.14258C3.63281 0.683594 3.74023 0.341797 4.14062-0.0195312L14.9512-10.1953L16.416-8.71094L6.42578 2.27539C6.07422 2.67578 5.74219 2.77344 5.27344 2.30469Z"/>
  </g>
  <text style="stroke:none;fill:black;font-family:-apple-system,&quot;SF Pro Display&quot;,&quot;SF Pro Text&quot;,Helvetica,sans-serif;font-weight:bold;" transform="matrix(1 0 0 1 1289 1953)">Exporting</text>
  <text style="stroke:none;fill:black;font-family:-apple-system,&quot;SF Pro Display&quot;,&quot;SF Pro Text&quot;,Helvetica,sans-serif;" transform="matrix(1 0 0 1 1289 1971)">Symbols should be outlined when exporting to ensure the</text>
  <text style="stroke:none;fill:black;font-family:-apple-system,&quot;SF Pro Display&quot;,&quot;SF Pro Text&quot;,Helvetica,sans-serif;" transform="matrix(1 0 0 1 1289 1989)">design is preserved when submitting to Xcode.</text>
  <text id="template-version" style="stroke:none;fill:black;font-family:-apple-system,&quot;SF Pro Display&quot;,&quot;SF Pro Text&quot;,Helvetica,sans-serif;text-anchor:end;" transform="matrix(1 0 0 1 3036 1933)">Template v.2.0</text>
  <text style="stroke:none;fill:black;font-family:-apple-system,&quot;SF Pro Display&quot;,&quot;SF Pro Text&quot;,Helvetica,sans-serif;text-anchor:end;" transform="matrix(1 0 0 1 3036 1951)">Requires Xcode 12 or greater</text>
  <text style="stroke:none;fill:black;font-family:-apple-system,&quot;SF Pro Display&quot;,&quot;SF Pro Text&quot;,Helvetica,sans-serif;" transform="matrix(1 0 0 1 263 726)">Small</text>
  <text style="stroke:none;fill:black;font-family:-apple-system,&quot;SF Pro Display&quot;,&quot;SF Pro Text&quot;,Helvetica,sans-serif;" transform="matrix(1 0 0 1 263 1156)">Medium</text>
  <text style="stroke:none;fill:black;font-family:-apple-system,&quot;SF Pro Display&quot;,&quot;SF Pro Text&quot;,Helvetica,sans-serif;" transform="matrix(1 0 0 1 263 1586)">Large</text>
 </g>
 <g id="Guides">
  <g id="H-reference" style="fill:#27AAE1;stroke:none;" transform="matrix(1 0 0 1 339 696)">
   <path d="M0.976562 0L3.66211 0L12.9883-24.4629L45.752-24.4629L55.127 0L57.7637 0L30.6152-70.459L28.125-70.459ZM29.3457-67.1387L29.4434-67.1387L44.873-26.709L13.8672-26.709Z"/>
  </g>
  <line id="Baseline-S" style="fill:none;stroke:#27AAE1;opacity:1;stroke-width:0.5;" x1="263" x2="3036" y1="696" y2="696"/>
  <line id="Capline-S" style="fill:none;stroke:#27AAE1;opacity:1;stroke-width:0.5;" x1="263" x2="3036" y1="625.541" y2="625.541"/>
  <g id="H-reference" style="fill:#27AAE1;stroke:none;" transform="matrix(1 0 0 1 339 1126)">
   <path d="M0.976562 0L3.66211 0L12.9883-24.4629L45.752-24.4629L55.127 0L57.7637 0L30.6152-70.459L28.125-70.459ZM29.3457-67.1387L29.4434-67.1387L44.873-26.709L13.8672-26.709Z"/>
  </g>
  <line id="Baseline-M" style="fill:none;stroke:#27AAE1;opacity:1;stroke-width:0.5;" x1="263" x2="3036" y1="1126" y2="1126"/>
  <line id="Capline-M" style="fill:none;stroke:#27AAE1;opacity:1;stroke-width:0.5;" x1="263" x2="3036" y1="1055.54" y2="1055.54"/>
  <g id="H-reference" style="fill:#27AAE1;stroke:none;" transform="matrix(1 0 0 1 339 1556)">
   <path d="M0.976562 0L3.66211 0L12.9883-24.4629L45.752-24.4629L55.127 0L57.7637 0L30.6152-70.459L28.125-70.459ZM29.3457-67.1387L29.4434-67.1387L44.873-26.709L13.8672-26.709Z"/>
  </g>
  <line id="Baseline-L" style="fill:none;stroke:#27AAE1;opacity:1;stroke-width:0.5;" x1="263" x2="3036" y1="1556" y2="1556"/>
  <line id="Capline-L" style="fill:none;stroke:#27AAE1;opacity:1;stroke-width:0.5;" x1="263" x2="3036" y1="1485.54" y2="1485.54"/>
  <line id="left-margin" x1="1415.648875550819" x2="1415.648875550819" y1="1030.79" y2="1150.12" style="fill:none;stroke:#00AEEF;stroke-width:0.5;opacity:1.0;"/>
  <line id="right-margin" x1="1486.6111244491808" x2="1486.6111244491808" y1="1030.79" y2="1150.12" style="fill:none;stroke:#00AEEF;stroke-width:0.5;opacity:1.0;"/>
 </g>
 <g id="Symbols">
  <g id="Black-L" transform="matrix(1.0,0.0,0.0,1.0,2889.0917026499565,1475.3233447265625)">  <path stroke-opacity="1" fill="#000000" xml:space="preserve" stroke-dasharray="none" stroke-width="26px" fill-rule="nonzero" y="0px" stroke="none" fill-opacity="1" stroke-linejoin="round" stroke-miterlimit="10" xmlns:xlink="http://www.w3.org/1999/xlink" stroke-linecap="round" version="1.1" x="0px" points="157.32,398.9 389.78,147.06 273.55,50.2 273.55,495.75 389.78,398.9 157.32,147.06 " d="M29.729,69.709L68.461,27.749C70.318,25.737,70.112,22.578,68.008,20.825L48.642,4.687C45.524,2.089,40.791,4.306,40.791,8.364L40.791,82.599C40.791,86.658,45.524,88.875,48.642,86.277L68.007,70.14C70.112,68.387,70.318,65.229,68.461,63.216L29.729,21.256C27.936,19.313,24.908,19.192,22.965,20.985C21.022,22.778,20.901,25.806,22.694,27.749L61.426,69.709L61.879,62.785L42.513,78.922L50.364,82.599L50.364,8.364L42.513,12.041L61.879,28.18L61.426,21.256L22.694,63.216C20.901,65.158,21.022,68.187,22.965,69.98C24.908,71.773,27.936,71.652,29.729,69.709Z"/>
  <path xmlns:xlink="http://www.w3.org/1999/xlink" cx="273.55" fill="#000000" stroke-dasharray="none" stroke="none" fill-opacity="1" y="0px" cy="272.98" stroke-miterlimit="10" x="0px" stroke-linejoin="miter" stroke-linecap="butt" stroke-width="26px" r="259.15" fill-rule="nonzero" xml:space="preserve" version="1.1" stroke-opacity="1" d="M83.969,45.482C83.969,66.685,66.78,83.874,45.577,83.874C24.374,83.874,7.186,66.685,7.186,45.482C7.186,24.28,24.374,7.091,45.577,7.091C66.78,7.091,83.969,24.28,83.969,45.482ZM93.543,45.482C93.543,18.992,72.068,-2.483,45.577,-2.483C19.087,-2.483,-2.388,18.992,-2.388,45.482C-2.388,71.973,19.087,93.448,45.577,93.448C72.068,93.448,93.543,71.973,93.543,45.482Z"/>
  <path stroke-opacity="1" fill-opacity="1" stroke-dasharray="none" stroke-width="40px" y="0px" fill="#000000" fill-rule="nonzero" stroke-linecap="butt" stroke="none" xml:space="preserve" stroke-miterlimit="10" x="0px" version="1.1" xmlns:xlink="http://www.w3.org/1999/xlink" stroke-linejoin="miter" d="M20.108,9.858L57.728,87.587L70.985,81.17L33.365,3.441L20.108,9.858ZM33.365,3.441L20.108,9.858L57.728,87.587L70.985,81.17L33.365,3.441Z"/>
</g>
  <g id="Heavy-L" transform="matrix(1.0,0.0,0.0,1.0,2592.3817026499564,1475.3233447265625)">  <path points="157.32,398.9 389.78,147.06 273.55,50.2 273.55,495.75 389.78,398.9 157.32,147.06 " stroke="none" stroke-dasharray="none" fill-rule="nonzero" y="0px" stroke-linejoin="round" xmlns:xlink="http://www.w3.org/1999/xlink" x="0px" stroke-opacity="1" version="1.1" xml:space="preserve" fill-opacity="1" stroke-linecap="round" stroke-miterlimit="10" stroke-width="26px" fill="#000000" d="M29.344,69.354L68.075,27.394C69.73,25.601,69.546,22.789,67.672,21.228L48.306,5.089C45.53,2.776,41.315,4.75,41.315,8.364L41.315,82.599C41.315,86.213,45.53,88.188,48.306,85.874L67.672,69.737C69.546,68.176,69.73,65.364,68.075,63.571L29.344,21.611C27.747,19.881,25.051,19.773,23.321,21.37C21.591,22.967,21.483,25.664,23.08,27.394L61.811,69.354L62.214,63.188L42.849,79.324L49.84,82.599L49.84,8.364L42.849,11.639L62.214,27.777L61.811,21.611L23.08,63.571C21.483,65.301,21.591,67.998,23.321,69.595C25.051,71.192,27.747,71.084,29.344,69.354Z"/>
  <path xml:space="preserve" r="259.15" stroke-linecap="butt" stroke-dasharray="none" cx="273.55" cy="272.98" y="0px" stroke-miterlimit="10" xmlns:xlink="http://www.w3.org/1999/xlink" stroke-linejoin="miter" fill-opacity="1" version="1.1" fill-rule="nonzero" stroke-opacity="1" stroke="none" x="0px" stroke-width="26px" fill="#000000" d="M84.493,45.482C84.493,66.975,67.07,84.398,45.577,84.398C24.085,84.398,6.662,66.975,6.662,45.482C6.662,23.99,24.085,6.567,45.577,6.567C67.07,6.567,84.493,23.99,84.493,45.482ZM93.018,45.482C93.018,19.282,71.778,-1.958,45.577,-1.958C19.377,-1.958,-1.863,19.282,-1.863,45.482C-1.863,71.683,19.377,92.923,45.577,92.923C71.778,92.923,93.018,71.683,93.018,45.482Z"/>
  <path fill="#000000" fill-opacity="1" stroke-linejoin="miter" stroke-miterlimit="10" stroke="none" version="1.1" stroke-width="40px" xml:space="preserve" stroke-opacity="1" xmlns:xlink="http://www.w3.org/1999/xlink" stroke-linecap="butt" y="0px" x="0px" stroke-dasharray="none" fill-rule="nonzero" d="M20.834,9.507L58.454,87.236L70.26,81.522L32.64,3.793L20.834,9.507ZM32.64,3.793L20.834,9.507L58.454,87.236L70.26,81.522L32.64,3.793Z"/>
</g>
  <g id="Bold-L" transform="matrix(1.0,0.0,0.0,1.0,2295.6717026499564,1475.3233447265625)">  <path stroke-linejoin="round" stroke-miterlimit="10" stroke-linecap="round" xmlns:xlink="http://www.w3.org/1999/xlink" fill-rule="nonzero" stroke-width="26px" stroke-opacity="1" xml:space="preserve" points="157.32,398.9 389.78,147.06 273.55,50.2 273.55,495.75 389.78,398.9 157.32,147.06 " fill="#000000" fill-opacity="1" x="0px" version="1.1" stroke="none" y="0px" stroke-dasharray="none" d="M28.959,68.998L67.69,27.038C69.141,25.466,68.98,23,67.336,21.63L47.971,5.492C45.536,3.463,41.839,5.194,41.839,8.364L41.839,82.599C41.839,85.769,45.536,87.5,47.971,85.471L67.336,69.335C68.98,67.965,69.141,65.499,67.69,63.927L28.959,21.967C27.559,20.449,25.193,20.355,23.676,21.755C22.159,23.156,22.064,25.521,23.465,27.038L62.196,68.998L62.55,63.591L43.184,79.727L49.316,82.599L49.316,8.364L43.184,11.236L62.55,27.374L62.196,21.967L23.465,63.927C22.064,65.444,22.159,67.809,23.676,69.21C25.193,70.61,27.559,70.516,28.959,68.998Z"/>
  <path r="259.15" stroke-dasharray="none" stroke-miterlimit="10" fill-opacity="1" xmlns:xlink="http://www.w3.org/1999/xlink" cy="272.98" fill-rule="nonzero" fill="#000000" stroke-width="26px" y="0px" cx="273.55" x="0px" stroke-linecap="butt" stroke-opacity="1" version="1.1" stroke-linejoin="miter" xml:space="preserve" stroke="none" d="M85.017,45.482C85.017,67.264,67.359,84.922,45.577,84.922C23.796,84.922,6.138,67.264,6.138,45.482C6.138,23.701,23.796,6.043,45.577,6.043C67.359,6.043,85.017,23.701,85.017,45.482ZM92.494,45.482C92.494,19.571,71.489,-1.434,45.577,-1.434C19.666,-1.434,-1.339,19.571,-1.339,45.482C-1.339,71.394,19.666,92.399,45.577,92.399C71.489,92.399,92.494,71.394,92.494,45.482Z"/>
  <path fill="#000000" fill-rule="nonzero" stroke-dasharray="none" stroke-width="40px" xmlns:xlink="http://www.w3.org/1999/xlink" stroke-opacity="1" xml:space="preserve" x="0px" stroke-linecap="butt" version="1.1" y="0px" stroke-linejoin="miter" fill-opacity="1" stroke-miterlimit="10" stroke="none" d="M21.56,9.155L59.18,86.884L69.534,81.873L31.914,4.144L21.56,9.155ZM31.914,4.144L21.56,9.155L59.18,86.884L69.534,81.873L31.914,4.144Z"/>
</g>
  <g id="Semibold-L" transform="matrix(1.0,0.0,0.0,1.0,1998.9617026499566,1475.3233447265625)">  <path y="0px" stroke-opacity="1" x="0px" xmlns:xlink="http://www.w3.org/1999/xlink" xml:space="preserve" version="1.1" stroke-dasharray="none" points="157.32,398.9 389.78,147.06 273.55,50.2 273.55,495.75 389.78,398.9 157.32,147.06 " stroke-width="26px" stroke-linejoin="round" stroke="none" fill-opacity="1" fill="#000000" stroke-linecap="round" fill-rule="nonzero" stroke-miterlimit="10" d="M28.574,68.643L67.305,26.683C68.552,25.331,68.414,23.21,67.001,22.033L47.635,5.895C45.542,4.15,42.363,5.639,42.363,8.364L42.363,82.599C42.363,85.324,45.542,86.813,47.635,85.069L67.001,68.932C68.414,67.755,68.553,65.634,67.305,64.282L28.574,22.322C27.37,21.018,25.336,20.936,24.032,22.14C22.727,23.345,22.646,25.378,23.85,26.683L62.581,68.643L62.885,63.993L43.52,80.13L48.792,82.599L48.792,8.364L43.52,10.833L62.885,26.972L62.581,22.322L23.85,64.282C22.646,65.587,22.727,67.62,24.032,68.825C25.336,70.029,27.37,69.947,28.574,68.643Z"/>
  <path y="0px" stroke-linejoin="miter" stroke-miterlimit="10" version="1.1" cy="272.98" stroke-width="26px" xmlns:xlink="http://www.w3.org/1999/xlink" stroke-dasharray="none" xml:space="preserve" r="259.15" fill-opacity="1" x="0px" fill-rule="nonzero" stroke="none" cx="273.55" fill="#000000" stroke-linecap="butt" stroke-opacity="1" d="M85.541,45.482C85.541,67.554,67.649,85.446,45.577,85.446C23.506,85.446,5.614,67.554,5.614,45.482C5.614,23.411,23.506,5.519,45.577,5.519C67.649,5.519,85.541,23.411,85.541,45.482ZM91.97,45.482C91.97,19.861,71.199,-0.91,45.577,-0.91C19.956,-0.91,-0.815,19.861,-0.815,45.482C-0.815,71.104,19.956,91.875,45.577,91.875C71.199,91.875,91.97,71.104,91.97,45.482Z"/>
  <path stroke-dasharray="none" fill-rule="nonzero" fill="#000000" stroke-linejoin="miter" y="0px" stroke-opacity="1" version="1.1" stroke-miterlimit="10" stroke-linecap="butt" fill-opacity="1" x="0px" xml:space="preserve" stroke="none" xmlns:xlink="http://www.w3.org/1999/xlink" stroke-width="40px" d="M22.285,8.804L59.905,86.533L68.808,82.224L31.188,4.495L22.285,8.804ZM31.188,4.495L22.285,8.804L59.905,86.533L68.808,82.224L31.188,4.495Z"/>
</g>
  <g id="Medium-L" transform="matrix(1.0,0.0,0.0,1.0,1702.2517026499565,1475.3233447265625)">  <path stroke-miterlimit="10" y="0px" version="1.1" x="0px" xmlns:xlink="http://www.w3.org/1999/xlink" fill-rule="nonzero" stroke-linecap="round" xml:space="preserve" points="157.32,398.9 389.78,147.06 273.55,50.2 273.55,495.75 389.78,398.9 157.32,147.06 " fill="#000000" stroke-opacity="1" fill-opacity="1" stroke-width="26px" stroke="none" stroke-dasharray="none" stroke-linejoin="round" d="M28.189,68.287L66.92,26.327C67.964,25.196,67.848,23.421,66.665,22.436L47.3,6.297C45.548,4.837,42.887,6.083,42.887,8.364L42.887,82.599C42.887,84.88,45.547,86.126,47.3,84.666L66.665,68.529C67.848,67.544,67.964,65.769,66.92,64.638L28.189,22.678C27.181,21.586,25.479,21.518,24.387,22.526C23.295,23.533,23.227,25.235,24.235,26.327L62.966,68.287L63.221,64.396L43.855,80.533L48.268,82.599L48.268,8.364L43.855,10.431L63.221,26.569L62.966,22.678L24.235,64.638C23.227,65.73,23.295,67.432,24.387,68.439C25.479,69.447,27.181,69.379,28.189,68.287Z"/>
  <path xmlns:xlink="http://www.w3.org/1999/xlink" r="259.15" stroke="none" cy="272.98" fill="#000000" version="1.1" stroke-linejoin="miter" fill-rule="nonzero" y="0px" cx="273.55" stroke-miterlimit="10" x="0px" fill-opacity="1" stroke-dasharray="none" stroke-linecap="butt" stroke-width="26px" xml:space="preserve" stroke-opacity="1" d="M86.066,45.482C86.066,67.843,67.938,85.971,45.577,85.971C23.217,85.971,5.089,67.843,5.089,45.482C5.089,23.122,23.217,4.994,45.577,4.994C67.938,4.994,86.066,23.122,86.066,45.482ZM91.446,45.482C91.446,20.15,70.91,-0.386,45.577,-0.386C20.245,-0.386,-0.291,20.15,-0.291,45.482C-0.291,70.815,20.245,91.351,45.577,91.351C70.91,91.351,91.446,70.815,91.446,45.482Z"/>
  <path stroke-dasharray="none" y="0px" stroke-linecap="butt" fill-opacity="1" x="0px" fill-rule="nonzero" xml:space="preserve" stroke-linejoin="miter" stroke-opacity="1" stroke="none" fill="#000000" xmlns:xlink="http://www.w3.org/1999/xlink" stroke-miterlimit="10" version="1.1" stroke-width="40px" d="M23.011,8.453L60.631,86.182L68.082,82.576L30.462,4.847L23.011,8.453ZM30.462,4.847L23.011,8.453L60.631,86.182L68.082,82.576L30.462,4.847Z"/>
</g>
  <g id="Regular-L" transform="matrix(1.0,0.0,0.0,1.0,1405.5417026499565,1475.3233447265625)">  <path stroke-dasharray="none" stroke-linejoin="round" y="0px" stroke-opacity="1" xmlns:xlink="http://www.w3.org/1999/xlink" stroke-linecap="round" fill-opacity="1" x="0px" points="157.32,398.9 389.78,147.06 273.55,50.2 273.55,495.75 389.78,398.9 157.32,147.06 " fill-rule="nonzero" stroke-miterlimit="10" version="1.1" stroke="none" stroke-width="26px" fill="#000000" xml:space="preserve" d="M27.803,67.932L66.535,25.971C67.375,25.061,67.282,23.632,66.33,22.838L46.964,6.7C45.553,5.524,43.411,6.528,43.411,8.364L43.411,82.599C43.411,84.436,45.553,85.439,46.964,84.263L66.33,68.127C67.282,67.333,67.375,65.904,66.535,64.994L27.803,23.033C26.992,22.154,25.622,22.099,24.743,22.911C23.864,23.722,23.809,25.092,24.62,25.971L63.351,67.932L63.557,64.799L44.191,80.935L47.743,82.599L47.743,8.364L44.191,10.028L63.556,26.166L63.351,23.033L24.62,64.994C23.809,65.873,23.864,67.243,24.743,68.054C25.622,68.866,26.992,68.811,27.803,67.932Z"/>
  <path stroke-width="26px" fill-rule="nonzero" stroke="none" stroke-dasharray="none" cx="273.55" y="0px" xmlns:xlink="http://www.w3.org/1999/xlink" fill="#000000" stroke-linejoin="miter" x="0px" xml:space="preserve" stroke-miterlimit="10" r="259.15" stroke-opacity="1" fill-opacity="1" stroke-linecap="butt" version="1.1" cy="272.98" d="M86.59,45.482C86.59,68.133,68.228,86.495,45.577,86.495C22.927,86.495,4.565,68.133,4.565,45.482C4.565,22.832,22.927,4.47,45.577,4.47C68.228,4.47,86.59,22.832,86.59,45.482ZM90.922,45.482C90.922,20.44,70.62,0.138,45.577,0.138C20.535,0.138,0.233,20.44,0.233,45.482C0.233,70.525,20.535,90.827,45.577,90.827C70.62,90.827,90.922,70.525,90.922,45.482Z"/>
  <path xmlns:xlink="http://www.w3.org/1999/xlink" y="0px" fill-opacity="1" x="0px" stroke-opacity="1" stroke-miterlimit="10" stroke-linecap="butt" stroke-dasharray="none" stroke="none" xml:space="preserve" stroke-width="40px" fill="#000000" fill-rule="nonzero" stroke-linejoin="miter" version="1.1" d="M23.737,8.101L61.357,85.83L67.356,82.927L29.736,5.198L23.737,8.101ZM29.736,5.198L23.737,8.101L61.357,85.83L67.356,82.927L29.736,5.198Z"/>
</g>
  <g id="Light-L" transform="matrix(1.0,0.0,0.0,1.0,1108.8317026499567,1475.3233447265625)">  <path stroke-linejoin="round" points="157.32,398.9 389.78,147.06 273.55,50.2 273.55,495.75 389.78,398.9 157.32,147.06 " fill-rule="nonzero" xmlns:xlink="http://www.w3.org/1999/xlink" y="0px" version="1.1" fill="#000000" xml:space="preserve" stroke-width="26px" stroke-opacity="1" x="0px" stroke-miterlimit="10" stroke-linecap="round" fill-opacity="1" stroke="none" stroke-dasharray="none" d="M27.538,67.687L66.269,25.727C66.97,24.968,66.892,23.777,66.099,23.116L46.733,6.977C45.557,5.998,43.772,6.834,43.772,8.364L43.772,82.599C43.772,84.13,45.557,84.966,46.733,83.986L66.099,67.849C66.892,67.188,66.97,65.997,66.269,65.238L27.538,23.278C26.862,22.546,25.72,22.5,24.988,23.176C24.255,23.852,24.209,24.994,24.885,25.727L63.617,67.687L63.788,65.076L44.422,81.213L47.382,82.599L47.382,8.364L44.422,9.751L63.788,25.889L63.617,23.278L24.885,65.238C24.209,65.971,24.255,67.113,24.988,67.789C25.72,68.465,26.862,68.419,27.538,67.687Z"/>
  <path stroke-miterlimit="10" fill-rule="nonzero" y="0px" stroke-opacity="1" cy="272.98" fill="#000000" stroke-linecap="butt" fill-opacity="1" r="259.15" stroke="none" stroke-dasharray="none" x="0px" xml:space="preserve" version="1.1" stroke-linejoin="miter" stroke-width="26px" cx="273.55" xmlns:xlink="http://www.w3.org/1999/xlink" d="M86.951,45.482C86.951,68.332,68.427,86.856,45.577,86.856C22.728,86.856,4.204,68.332,4.204,45.482C4.204,22.633,22.728,4.109,45.577,4.109C68.427,4.109,86.951,22.633,86.951,45.482ZM90.561,45.482C90.561,20.639,70.421,0.499,45.577,0.499C20.734,0.499,0.594,20.639,0.594,45.482C0.594,70.326,20.734,90.466,45.577,90.466C70.421,90.466,90.561,70.326,90.561,45.482Z"/>
  <path version="1.1" fill-opacity="1" stroke-width="40px" stroke-linejoin="miter" stroke-linecap="butt" stroke-miterlimit="10" stroke-dasharray="none" y="0px" stroke="none" xmlns:xlink="http://www.w3.org/1999/xlink" stroke-opacity="1" xml:space="preserve" fill="#000000" fill-rule="nonzero" x="0px" d="M24.237,7.859L61.857,85.588L66.856,83.169L29.236,5.44L24.237,7.859ZM29.236,5.44L24.237,7.859L61.857,85.588L66.856,83.169L29.236,5.44Z"/>
</g>
  <g id="Thin-L" transform="matrix(1.0,0.0,0.0,1.0,812.1217026499567,1475.3233447265625)">  <path y="0px" stroke-linejoin="round" fill-rule="nonzero" fill-opacity="1" fill="#000000" xmlns:xlink="http://www.w3.org/1999/xlink" x="0px" stroke-dasharray="none" version="1.1" xml:space="preserve" stroke="none" stroke-linecap="round" stroke-opacity="1" stroke-miterlimit="10" points="157.32,398.9 389.78,147.06 273.55,50.2 273.55,495.75 389.78,398.9 157.32,147.06 " stroke-width="26px" d="M27.273,67.442L66.004,25.482C66.565,24.875,66.502,23.922,65.868,23.393L46.502,7.255C45.561,6.471,44.133,7.14,44.133,8.364L44.133,82.599C44.133,83.824,45.561,84.492,46.502,83.709L65.867,67.572C66.502,67.043,66.565,66.09,66.004,65.483L27.273,23.523C26.732,22.937,25.818,22.9,25.232,23.441C24.646,23.982,24.61,24.896,25.151,25.482L63.882,67.442L64.019,65.353L44.653,81.49L47.021,82.599L47.021,8.364L44.653,9.473L64.019,25.612L63.882,23.523L25.151,65.483C24.61,66.069,24.646,66.983,25.232,67.524C25.818,68.065,26.732,68.028,27.273,67.442Z"/>
  <path r="259.15" cx="273.55" fill-opacity="1" xml:space="preserve" x="0px" stroke-linejoin="miter" version="1.1" stroke-dasharray="none" fill="#000000" y="0px" stroke-miterlimit="10" fill-rule="nonzero" stroke-linecap="butt" cy="272.98" xmlns:xlink="http://www.w3.org/1999/xlink" stroke="none" stroke-opacity="1" stroke-width="26px" d="M87.312,45.482C87.312,68.532,68.627,87.217,45.577,87.217C22.528,87.217,3.843,68.532,3.843,45.482C3.843,22.433,22.528,3.748,45.577,3.748C68.627,3.748,87.312,22.433,87.312,45.482ZM90.2,45.482C90.2,20.838,70.222,0.86,45.577,0.86C20.933,0.86,0.955,20.838,0.955,45.482C0.955,70.127,20.933,90.105,45.577,90.105C70.222,90.105,90.2,70.127,90.2,45.482Z"/>
  <path stroke-miterlimit="10" stroke-linejoin="miter" x="0px" stroke-linecap="butt" y="0px" fill-rule="nonzero" fill="#000000" stroke-opacity="1" stroke-dasharray="none" xml:space="preserve" fill-opacity="1" stroke="none" xmlns:xlink="http://www.w3.org/1999/xlink" version="1.1" stroke-width="40px" d="M24.737,7.617L62.357,85.347L66.356,83.411L28.736,5.682L24.737,7.617ZM28.736,5.682L24.737,7.617L62.357,85.347L66.356,83.411L28.736,5.682Z"/>
</g>
  <g id="Ultralight-L" transform="matrix(1.0,0.0,0.0,1.0,515.4117026499566,1475.3233447265625)">  <path points="157.32,398.9 389.78,147.06 273.55,50.2 273.55,495.75 389.78,398.9 157.32,147.06 " y="0px" stroke-linecap="round" xmlns:xlink="http://www.w3.org/1999/xlink" x="0px" fill="#000000" stroke-linejoin="round" stroke-miterlimit="10" stroke-width="26px" stroke="none" stroke-dasharray="none" xml:space="preserve" fill-rule="nonzero" fill-opacity="1" stroke-opacity="1" version="1.1" d="M27.008,67.197L65.739,25.237C66.159,24.782,66.112,24.067,65.636,23.67L46.271,7.532C45.565,6.944,44.494,7.446,44.494,8.364L44.494,82.599C44.494,83.517,45.565,84.019,46.271,83.431L65.636,67.295C66.112,66.898,66.159,66.183,65.739,65.728L27.008,23.768C26.602,23.328,25.917,23.301,25.477,23.707C25.038,24.112,25.01,24.797,25.416,25.237L64.147,67.197L64.25,65.631L44.884,81.767L46.66,82.599L46.66,8.364L44.884,9.196L64.25,25.334L64.147,23.768L25.416,65.728C25.01,66.168,25.038,66.853,25.477,67.258C25.917,67.664,26.602,67.637,27.008,67.197Z"/>
  <path y="0px" stroke-linecap="butt" stroke="none" r="259.15" fill-opacity="1" fill-rule="nonzero" stroke-dasharray="none" cy="272.98" version="1.1" x="0px" stroke-opacity="1" fill="#000000" stroke-width="26px" stroke-linejoin="miter" xmlns:xlink="http://www.w3.org/1999/xlink" xml:space="preserve" cx="273.55" stroke-miterlimit="10" d="M87.673,45.482C87.673,68.731,68.826,87.578,45.577,87.578C22.329,87.578,3.482,68.731,3.482,45.482C3.482,22.234,22.329,3.387,45.577,3.387C68.826,3.387,87.673,22.234,87.673,45.482ZM89.839,45.482C89.839,21.038,70.022,1.221,45.577,1.221C21.133,1.221,1.316,21.038,1.316,45.482C1.316,69.927,21.133,89.744,45.577,89.744C70.022,89.744,89.839,69.927,89.839,45.482Z"/>
  <path stroke="none" stroke-width="40px" version="1.1" stroke-dasharray="none" y="0px" stroke-miterlimit="10" xmlns:xlink="http://www.w3.org/1999/xlink" x="0px" fill-opacity="1" stroke-linejoin="miter" xml:space="preserve" fill-rule="nonzero" fill="#000000" stroke-opacity="1" stroke-linecap="butt" d="M25.237,7.375L62.857,85.105L65.856,83.653L28.236,5.924L25.237,7.375ZM28.236,5.924L25.237,7.375L62.857,85.105L65.856,83.653L28.236,5.924Z"/>
</g>
  <g id="Black-M" transform="matrix(1.0,0.0,0.0,1.0,2899.3402346123694,1055.5400390625)">  <path stroke-opacity="1" fill="#000000" xml:space="preserve" stroke-dasharray="none" stroke-width="26px" fill-rule="nonzero" y="0px" stroke="none" fill-opacity="1" stroke-linejoin="round" stroke-miterlimit="10" xmlns:xlink="http://www.w3.org/1999/xlink" stroke-linecap="round" version="1.1" x="0px" points="157.32,398.9 389.78,147.06 273.55,50.2 273.55,495.75 389.78,398.9 157.32,147.06 " d="M23.046,54.038L53.07,21.511C54.51,19.951,54.35,17.503,52.719,16.143L37.707,3.633C35.29,1.619,31.621,3.338,31.621,6.484L31.621,64.03C31.621,67.176,35.29,68.895,37.707,66.881L52.719,54.372C54.35,53.013,54.51,50.565,53.07,49.005L23.046,16.477C21.656,14.971,19.308,14.877,17.802,16.267C16.296,17.657,16.203,20.005,17.593,21.511L47.617,54.038L47.968,48.671L32.956,61.18L39.042,64.03L39.042,6.484L32.956,9.334L47.968,21.845L47.617,16.477L17.593,49.005C16.203,50.51,16.296,52.858,17.802,54.248C19.308,55.638,21.656,55.544,23.046,54.038Z"/>
  <path xmlns:xlink="http://www.w3.org/1999/xlink" cx="273.55" fill="#000000" stroke-dasharray="none" stroke="none" fill-opacity="1" y="0px" cy="272.98" stroke-miterlimit="10" x="0px" stroke-linejoin="miter" stroke-linecap="butt" stroke-width="26px" r="259.15" fill-rule="nonzero" xml:space="preserve" version="1.1" stroke-opacity="1" d="M65.092,35.258C65.092,51.694,51.768,65.019,35.331,65.019C18.895,65.019,5.571,51.694,5.571,35.258C5.571,18.821,18.895,5.497,35.331,5.497C51.768,5.497,65.092,18.821,65.092,35.258ZM72.514,35.258C72.514,14.723,55.867,-1.924,35.331,-1.924C14.796,-1.924,-1.851,14.723,-1.851,35.258C-1.851,55.793,14.796,72.44,35.331,72.44C55.867,72.44,72.514,55.793,72.514,35.258Z"/>
  <path stroke-opacity="1" fill-opacity="1" stroke-dasharray="none" stroke-width="40px" y="0px" fill="#000000" fill-rule="nonzero" stroke-linecap="butt" stroke="none" xml:space="preserve" stroke-miterlimit="10" x="0px" version="1.1" xmlns:xlink="http://www.w3.org/1999/xlink" stroke-linejoin="miter" d="M15.587,7.642L44.75,67.897L55.027,62.923L25.865,2.668L15.587,7.642ZM25.865,2.668L15.587,7.642L44.75,67.897L55.027,62.923L25.865,2.668Z"/>
</g>
  <g id="Heavy-M" transform="matrix(1.0,0.0,0.0,1.0,2602.6302346123693,1055.5400390625)">  <path points="157.32,398.9 389.78,147.06 273.55,50.2 273.55,495.75 389.78,398.9 157.32,147.06 " stroke="none" stroke-dasharray="none" fill-rule="nonzero" y="0px" stroke-linejoin="round" xmlns:xlink="http://www.w3.org/1999/xlink" x="0px" stroke-opacity="1" version="1.1" xml:space="preserve" fill-opacity="1" stroke-linecap="round" stroke-miterlimit="10" stroke-width="26px" fill="#000000" d="M22.747,53.763L52.772,21.235C54.054,19.846,53.911,17.666,52.459,16.456L37.447,3.945C35.295,2.152,32.027,3.682,32.027,6.484L32.027,64.03C32.027,66.832,35.294,68.362,37.447,66.569L52.459,54.06C53.911,52.85,54.054,50.67,52.772,49.28L22.747,16.753C21.51,15.412,19.419,15.328,18.078,16.566C16.737,17.804,16.653,19.894,17.891,21.235L47.915,53.763L48.228,48.983L33.216,61.492L38.636,64.03L38.636,6.484L33.216,9.022L48.228,21.533L47.915,16.753L17.891,49.28C16.653,50.621,16.737,52.712,18.078,53.95C19.419,55.187,21.51,55.104,22.747,53.763Z"/>
  <path xml:space="preserve" r="259.15" stroke-linecap="butt" stroke-dasharray="none" cx="273.55" cy="272.98" y="0px" stroke-miterlimit="10" xmlns:xlink="http://www.w3.org/1999/xlink" stroke-linejoin="miter" fill-opacity="1" version="1.1" fill-rule="nonzero" stroke-opacity="1" stroke="none" x="0px" stroke-width="26px" fill="#000000" d="M65.498,35.258C65.498,51.919,51.992,65.425,35.331,65.425C18.671,65.425,5.164,51.919,5.164,35.258C5.164,18.597,18.671,5.091,35.331,5.091C51.992,5.091,65.498,18.597,65.498,35.258ZM72.107,35.258C72.107,14.947,55.642,-1.518,35.331,-1.518C15.021,-1.518,-1.445,14.947,-1.445,35.258C-1.445,55.569,15.021,72.034,35.331,72.034C55.642,72.034,72.107,55.569,72.107,35.258Z"/>
  <path fill="#000000" fill-opacity="1" stroke-linejoin="miter" stroke-miterlimit="10" stroke="none" version="1.1" stroke-width="40px" xml:space="preserve" stroke-opacity="1" xmlns:xlink="http://www.w3.org/1999/xlink" stroke-linecap="butt" y="0px" x="0px" stroke-dasharray="none" fill-rule="nonzero" d="M16.15,7.369L45.313,67.625L54.465,63.195L25.302,2.94L16.15,7.369ZM25.302,2.94L16.15,7.369L45.313,67.625L54.465,63.195L25.302,2.94Z"/>
</g>
  <g id="Bold-M" transform="matrix(1.0,0.0,0.0,1.0,2305.9202346123693,1055.5400390625)">  <path stroke-linejoin="round" stroke-miterlimit="10" stroke-linecap="round" xmlns:xlink="http://www.w3.org/1999/xlink" fill-rule="nonzero" stroke-width="26px" stroke-opacity="1" xml:space="preserve" points="157.32,398.9 389.78,147.06 273.55,50.2 273.55,495.75 389.78,398.9 157.32,147.06 " fill="#000000" fill-opacity="1" x="0px" version="1.1" stroke="none" y="0px" stroke-dasharray="none" d="M22.449,53.487L52.473,20.96C53.598,19.741,53.473,17.829,52.199,16.768L37.187,4.257C35.299,2.684,32.433,4.027,32.433,6.484L32.433,64.03C32.433,66.487,35.299,67.83,37.187,66.257L52.199,53.748C53.473,52.686,53.598,50.774,52.473,49.556L22.449,17.028C21.363,15.852,19.53,15.779,18.354,16.865C17.177,17.95,17.104,19.784,18.19,20.96L48.214,53.487L48.488,49.295L33.476,61.804L38.229,64.03L38.229,6.484L33.476,8.71L48.488,21.22L48.214,17.028L18.19,49.556C17.104,50.732,17.177,52.565,18.354,53.651C19.53,54.737,21.363,54.663,22.449,53.487Z"/>
  <path r="259.15" stroke-dasharray="none" stroke-miterlimit="10" fill-opacity="1" xmlns:xlink="http://www.w3.org/1999/xlink" cy="272.98" fill-rule="nonzero" fill="#000000" stroke-width="26px" y="0px" cx="273.55" x="0px" stroke-linecap="butt" stroke-opacity="1" version="1.1" stroke-linejoin="miter" xml:space="preserve" stroke="none" d="M65.905,35.258C65.905,52.143,52.217,65.831,35.331,65.831C18.446,65.831,4.758,52.143,4.758,35.258C4.758,18.373,18.446,4.684,35.331,4.684C52.217,4.684,65.905,18.373,65.905,35.258ZM71.701,35.258C71.701,15.171,55.418,-1.112,35.331,-1.112C15.245,-1.112,-1.038,15.171,-1.038,35.258C-1.038,55.344,15.245,71.627,35.331,71.627C55.418,71.627,71.701,55.344,71.701,35.258Z"/>
  <path fill="#000000" fill-rule="nonzero" stroke-dasharray="none" stroke-width="40px" xmlns:xlink="http://www.w3.org/1999/xlink" stroke-opacity="1" xml:space="preserve" x="0px" stroke-linecap="butt" version="1.1" y="0px" stroke-linejoin="miter" fill-opacity="1" stroke-miterlimit="10" stroke="none" d="M16.713,7.097L45.876,67.352L53.902,63.467L24.739,3.212L16.713,7.097ZM24.739,3.212L16.713,7.097L45.876,67.352L53.902,63.467L24.739,3.212Z"/>
</g>
  <g id="Semibold-M" transform="matrix(1.0,0.0,0.0,1.0,2009.2102346123695,1055.5400390625)">  <path y="0px" stroke-opacity="1" x="0px" xmlns:xlink="http://www.w3.org/1999/xlink" xml:space="preserve" version="1.1" stroke-dasharray="none" points="157.32,398.9 389.78,147.06 273.55,50.2 273.55,495.75 389.78,398.9 157.32,147.06 " stroke-width="26px" stroke-linejoin="round" stroke="none" fill-opacity="1" fill="#000000" stroke-linecap="round" fill-rule="nonzero" stroke-miterlimit="10" d="M22.15,53.211L52.174,20.684C53.141,19.637,53.034,17.993,51.939,17.08L36.927,4.57C35.304,3.217,32.84,4.371,32.84,6.484L32.84,64.03C32.84,66.143,35.304,67.297,36.926,65.945L51.939,53.436C53.034,52.523,53.141,50.879,52.174,49.831L22.15,17.304C21.217,16.293,19.64,16.23,18.629,17.163C17.618,18.097,17.555,19.673,18.488,20.684L48.513,53.211L48.748,49.607L33.736,62.116L37.823,64.03L37.823,6.484L33.736,8.398L48.748,20.908L48.513,17.304L18.488,49.831C17.555,50.843,17.618,52.419,18.629,53.352C19.64,54.286,21.217,54.223,22.15,53.211Z"/>
  <path y="0px" stroke-linejoin="miter" stroke-miterlimit="10" version="1.1" cy="272.98" stroke-width="26px" xmlns:xlink="http://www.w3.org/1999/xlink" stroke-dasharray="none" xml:space="preserve" r="259.15" fill-opacity="1" x="0px" fill-rule="nonzero" stroke="none" cx="273.55" fill="#000000" stroke-linecap="butt" stroke-opacity="1" d="M66.311,35.258C66.311,52.367,52.441,66.238,35.331,66.238C18.222,66.238,4.352,52.367,4.352,35.258C4.352,18.148,18.222,4.278,35.331,4.278C52.441,4.278,66.311,18.148,66.311,35.258ZM71.295,35.258C71.295,15.396,55.193,-0.705,35.331,-0.705C15.469,-0.705,-0.632,15.396,-0.632,35.258C-0.632,55.12,15.469,71.221,35.331,71.221C55.193,71.221,71.295,55.12,71.295,35.258Z"/>
  <path stroke-dasharray="none" fill-rule="nonzero" fill="#000000" stroke-linejoin="miter" y="0px" stroke-opacity="1" version="1.1" stroke-miterlimit="10" stroke-linecap="butt" fill-opacity="1" x="0px" xml:space="preserve" stroke="none" xmlns:xlink="http://www.w3.org/1999/xlink" stroke-width="40px" d="M17.276,6.825L46.438,67.08L53.339,63.74L24.177,3.485L17.276,6.825ZM24.177,3.485L17.276,6.825L46.438,67.08L53.339,63.74L24.177,3.485Z"/>
</g>
  <g id="Medium-M" transform="matrix(1.0,0.0,0.0,1.0,1712.5002346123695,1055.5400390625)">  <path stroke-miterlimit="10" y="0px" version="1.1" x="0px" xmlns:xlink="http://www.w3.org/1999/xlink" fill-rule="nonzero" stroke-linecap="round" xml:space="preserve" points="157.32,398.9 389.78,147.06 273.55,50.2 273.55,495.75 389.78,398.9 157.32,147.06 " fill="#000000" stroke-opacity="1" fill-opacity="1" stroke-width="26px" stroke="none" stroke-dasharray="none" stroke-linejoin="round" d="M21.852,52.936L51.876,20.409C52.685,19.532,52.595,18.156,51.679,17.392L36.666,4.882C35.308,3.75,33.246,4.716,33.246,6.484L33.246,64.03C33.246,65.798,35.308,66.764,36.666,65.633L51.678,53.124C52.595,52.36,52.685,50.984,51.876,50.107L21.852,17.58C21.07,16.733,19.751,16.681,18.905,17.462C18.058,18.243,18.006,19.562,18.787,20.409L48.811,52.936L49.009,49.919L33.996,62.428L37.417,64.03L37.417,6.484L33.996,8.086L49.008,20.596L48.811,17.58L18.787,50.107C18.006,50.953,18.058,52.273,18.905,53.054C19.751,53.835,21.07,53.782,21.852,52.936Z"/>
  <path xmlns:xlink="http://www.w3.org/1999/xlink" r="259.15" stroke="none" cy="272.98" fill="#000000" version="1.1" stroke-linejoin="miter" fill-rule="nonzero" y="0px" cx="273.55" stroke-miterlimit="10" x="0px" fill-opacity="1" stroke-dasharray="none" stroke-linecap="butt" stroke-width="26px" xml:space="preserve" stroke-opacity="1" d="M66.717,35.258C66.717,52.592,52.665,66.644,35.331,66.644C17.997,66.644,3.945,52.592,3.945,35.258C3.945,17.924,17.997,3.872,35.331,3.872C52.665,3.872,66.717,17.924,66.717,35.258ZM70.888,35.258C70.888,15.62,54.969,-0.299,35.331,-0.299C15.694,-0.299,-0.226,15.62,-0.226,35.258C-0.226,54.895,15.694,70.815,35.331,70.815C54.969,70.815,70.888,54.895,70.888,35.258Z"/>
  <path stroke-dasharray="none" y="0px" stroke-linecap="butt" fill-opacity="1" x="0px" fill-rule="nonzero" xml:space="preserve" stroke-linejoin="miter" stroke-opacity="1" stroke="none" fill="#000000" xmlns:xlink="http://www.w3.org/1999/xlink" stroke-miterlimit="10" version="1.1" stroke-width="40px" d="M17.838,6.552L47.001,66.808L52.777,64.012L23.614,3.757L17.838,6.552ZM23.614,3.757L17.838,6.552L47.001,66.808L52.777,64.012L23.614,3.757Z"/>
</g>
  <g id="Regular-M" transform="matrix(1.0,0.0,0.0,1.0,1415.7902346123694,1055.5400390625)">  <path stroke-dasharray="none" stroke-linejoin="round" y="0px" stroke-opacity="1" xmlns:xlink="http://www.w3.org/1999/xlink" stroke-linecap="round" fill-opacity="1" x="0px" points="157.32,398.9 389.78,147.06 273.55,50.2 273.55,495.75 389.78,398.9 157.32,147.06 " fill-rule="nonzero" stroke-miterlimit="10" version="1.1" stroke="none" stroke-width="26px" fill="#000000" xml:space="preserve" d="M21.553,52.66L51.577,20.133C52.229,19.427,52.156,18.319,51.418,17.704L36.406,5.194C35.313,4.283,33.652,5.06,33.652,6.484L33.652,64.03C33.652,65.454,35.313,66.232,36.406,65.32L51.418,52.811C52.156,52.196,52.229,51.089,51.577,50.383L21.553,17.855C20.924,17.174,19.862,17.131,19.18,17.76C18.499,18.389,18.456,19.452,19.085,20.133L49.11,52.66L49.269,50.231L34.257,62.741L37.01,64.03L37.01,6.484L34.256,7.774L49.269,20.284L49.11,17.855L19.085,50.383C18.456,51.064,18.499,52.126,19.18,52.755C19.862,53.384,20.924,53.342,21.553,52.66Z"/>
  <path stroke-width="26px" fill-rule="nonzero" stroke="none" stroke-dasharray="none" cx="273.55" y="0px" xmlns:xlink="http://www.w3.org/1999/xlink" fill="#000000" stroke-linejoin="miter" x="0px" xml:space="preserve" stroke-miterlimit="10" r="259.15" stroke-opacity="1" fill-opacity="1" stroke-linecap="butt" version="1.1" cy="272.98" d="M67.124,35.258C67.124,52.816,52.89,67.05,35.331,67.05C17.773,67.05,3.539,52.816,3.539,35.258C3.539,17.699,17.773,3.465,35.331,3.465C52.89,3.465,67.124,17.699,67.124,35.258ZM70.482,35.258C70.482,15.845,54.744,0.107,35.331,0.107C15.918,0.107,0.181,15.845,0.181,35.258C0.181,54.671,15.918,70.408,35.331,70.408C54.744,70.408,70.482,54.671,70.482,35.258Z"/>
  <path xmlns:xlink="http://www.w3.org/1999/xlink" y="0px" fill-opacity="1" x="0px" stroke-opacity="1" stroke-miterlimit="10" stroke-linecap="butt" stroke-dasharray="none" stroke="none" xml:space="preserve" stroke-width="40px" fill="#000000" fill-rule="nonzero" stroke-linejoin="miter" version="1.1" d="M18.401,6.28L47.564,66.535L52.214,64.285L23.051,4.029L18.401,6.28ZM23.051,4.029L18.401,6.28L47.564,66.535L52.214,64.285L23.051,4.029Z"/>
</g>
  <g id="Light-M" transform="matrix(1.0,0.0,0.0,1.0,1119.0802346123696,1055.5400390625)">  <path stroke-linejoin="round" points="157.32,398.9 389.78,147.06 273.55,50.2 273.55,495.75 389.78,398.9 157.32,147.06 " fill-rule="nonzero" xmlns:xlink="http://www.w3.org/1999/xlink" y="0px" version="1.1" fill="#000000" xml:space="preserve" stroke-width="26px" stroke-opacity="1" x="0px" stroke-miterlimit="10" stroke-linecap="round" fill-opacity="1" stroke="none" stroke-dasharray="none" d="M21.347,52.47L51.372,19.943C51.915,19.355,51.854,18.432,51.239,17.919L36.227,5.409C35.316,4.649,33.932,5.297,33.932,6.484L33.932,64.03C33.932,65.217,35.316,65.865,36.227,65.105L51.239,52.596C51.854,52.084,51.915,51.161,51.372,50.572L21.347,18.045C20.823,17.477,19.938,17.442,19.37,17.966C18.802,18.49,18.767,19.375,19.291,19.943L49.315,52.47L49.448,50.446L34.436,62.955L36.731,64.03L36.731,6.484L34.436,7.559L49.448,20.069L49.315,18.045L19.291,50.572C18.767,51.14,18.802,52.025,19.37,52.55C19.938,53.074,20.823,53.038,21.347,52.47Z"/>
  <path stroke-miterlimit="10" fill-rule="nonzero" y="0px" stroke-opacity="1" cy="272.98" fill="#000000" stroke-linecap="butt" fill-opacity="1" r="259.15" stroke="none" stroke-dasharray="none" x="0px" xml:space="preserve" version="1.1" stroke-linejoin="miter" stroke-width="26px" cx="273.55" xmlns:xlink="http://www.w3.org/1999/xlink" d="M67.404,35.258C67.404,52.971,53.044,67.33,35.331,67.33C17.618,67.33,3.259,52.971,3.259,35.258C3.259,17.545,17.618,3.185,35.331,3.185C53.044,3.185,67.404,17.545,67.404,35.258ZM70.202,35.258C70.202,15.999,54.59,0.387,35.331,0.387C16.073,0.387,0.461,15.999,0.461,35.258C0.461,54.516,16.073,70.128,35.331,70.128C54.59,70.128,70.202,54.516,70.202,35.258Z"/>
  <path version="1.1" fill-opacity="1" stroke-width="40px" stroke-linejoin="miter" stroke-linecap="butt" stroke-miterlimit="10" stroke-dasharray="none" y="0px" stroke="none" xmlns:xlink="http://www.w3.org/1999/xlink" stroke-opacity="1" xml:space="preserve" fill="#000000" fill-rule="nonzero" x="0px" d="M18.788,6.093L47.951,66.348L51.826,64.472L22.664,4.217L18.788,6.093ZM22.664,4.217L18.788,6.093L47.951,66.348L51.826,64.472L22.664,4.217Z"/>
</g>
  <g id="Thin-M" transform="matrix(1.0,0.0,0.0,1.0,822.3702346123696,1055.5400390625)">  <path y="0px" stroke-linejoin="round" fill-rule="nonzero" fill-opacity="1" fill="#000000" xmlns:xlink="http://www.w3.org/1999/xlink" x="0px" stroke-dasharray="none" version="1.1" xml:space="preserve" stroke="none" stroke-linecap="round" stroke-opacity="1" stroke-miterlimit="10" points="157.32,398.9 389.78,147.06 273.55,50.2 273.55,495.75 389.78,398.9 157.32,147.06 " stroke-width="26px" d="M21.142,52.281L51.166,19.753C51.6,19.283,51.552,18.544,51.06,18.134L36.048,5.624C35.319,5.016,34.212,5.535,34.212,6.484L34.212,64.03C34.212,64.979,35.319,65.498,36.048,64.89L51.06,52.381C51.552,51.971,51.6,51.233,51.166,50.762L21.142,18.235C20.722,17.781,20.014,17.752,19.56,18.172C19.106,18.591,19.077,19.299,19.497,19.753L49.521,52.281L49.627,50.661L34.615,63.17L36.451,64.03L36.451,6.484L34.615,7.344L49.627,19.854L49.521,18.235L19.497,50.762C19.077,51.216,19.106,51.925,19.56,52.344C20.014,52.763,20.722,52.735,21.142,52.281Z"/>
  <path r="259.15" cx="273.55" fill-opacity="1" xml:space="preserve" x="0px" stroke-linejoin="miter" version="1.1" stroke-dasharray="none" fill="#000000" y="0px" stroke-miterlimit="10" fill-rule="nonzero" stroke-linecap="butt" cy="272.98" xmlns:xlink="http://www.w3.org/1999/xlink" stroke="none" stroke-opacity="1" stroke-width="26px" d="M67.683,35.258C67.683,53.125,53.199,67.61,35.331,67.61C17.464,67.61,2.979,53.125,2.979,35.258C2.979,17.39,17.464,2.906,35.331,2.906C53.199,2.906,67.683,17.39,67.683,35.258ZM69.922,35.258C69.922,16.154,54.435,0.667,35.331,0.667C16.227,0.667,0.741,16.154,0.741,35.258C0.741,54.362,16.227,69.849,35.331,69.849C54.435,69.849,69.922,54.362,69.922,35.258Z"/>
  <path stroke-miterlimit="10" stroke-linejoin="miter" x="0px" stroke-linecap="butt" y="0px" fill-rule="nonzero" fill="#000000" stroke-opacity="1" stroke-dasharray="none" xml:space="preserve" fill-opacity="1" stroke="none" xmlns:xlink="http://www.w3.org/1999/xlink" version="1.1" stroke-width="40px" d="M19.176,5.905L48.339,66.16L51.439,64.66L22.276,4.404L19.176,5.905ZM22.276,4.404L19.176,5.905L48.339,66.16L51.439,64.66L22.276,4.404Z"/>
</g>
  <g id="Ultralight-M" transform="matrix(1.0,0.0,0.0,1.0,525.6602346123695,1055.5400390625)">  <path points="157.32,398.9 389.78,147.06 273.55,50.2 273.55,495.75 389.78,398.9 157.32,147.06 " y="0px" stroke-linecap="round" xmlns:xlink="http://www.w3.org/1999/xlink" x="0px" fill="#000000" stroke-linejoin="round" stroke-miterlimit="10" stroke-width="26px" stroke="none" stroke-dasharray="none" xml:space="preserve" fill-rule="nonzero" fill-opacity="1" stroke-opacity="1" version="1.1" d="M20.936,52.091L50.96,19.564C51.286,19.211,51.25,18.657,50.881,18.349L35.869,5.839C35.322,5.383,34.492,5.772,34.492,6.484L34.492,64.03C34.492,64.742,35.322,65.131,35.869,64.675L50.881,52.166C51.25,51.859,51.286,51.305,50.96,50.952L20.936,18.425C20.622,18.084,20.091,18.063,19.75,18.377C19.409,18.692,19.388,19.223,19.702,19.564L49.727,52.091L49.806,50.876L34.794,63.385L36.171,64.03L36.171,6.484L34.794,7.129L49.806,19.639L49.727,18.425L19.702,50.952C19.388,51.293,19.409,51.824,19.75,52.138C20.091,52.453,20.622,52.432,20.936,52.091Z"/>
  <path y="0px" stroke-linecap="butt" stroke="none" r="259.15" fill-opacity="1" fill-rule="nonzero" stroke-dasharray="none" cy="272.98" version="1.1" x="0px" stroke-opacity="1" fill="#000000" stroke-width="26px" stroke-linejoin="miter" xmlns:xlink="http://www.w3.org/1999/xlink" xml:space="preserve" cx="273.55" stroke-miterlimit="10" d="M67.963,35.258C67.963,53.28,53.353,67.89,35.331,67.89C17.309,67.89,2.699,53.28,2.699,35.258C2.699,17.236,17.309,2.626,35.331,2.626C53.353,2.626,67.963,17.236,67.963,35.258ZM69.642,35.258C69.642,16.308,54.281,0.947,35.331,0.947C16.382,0.947,1.02,16.308,1.02,35.258C1.02,54.207,16.382,69.569,35.331,69.569C54.281,69.569,69.642,54.207,69.642,35.258Z"/>
  <path stroke="none" stroke-width="40px" version="1.1" stroke-dasharray="none" y="0px" stroke-miterlimit="10" xmlns:xlink="http://www.w3.org/1999/xlink" x="0px" fill-opacity="1" stroke-linejoin="miter" xml:space="preserve" fill-rule="nonzero" fill="#000000" stroke-opacity="1" stroke-linecap="butt" d="M19.564,5.717L48.726,65.973L51.051,64.847L21.889,4.592L19.564,5.717ZM21.889,4.592L19.564,5.717L48.726,65.973L51.051,64.847L21.889,4.592Z"/>
</g>
  <g id="Black-S" transform="matrix(1.0,0.0,0.0,1.0,2907.0089637014853,633.1849448242187)">  <path stroke-opacity="1" fill="#000000" xml:space="preserve" stroke-dasharray="none" stroke-width="26px" fill-rule="nonzero" y="0px" stroke="none" fill-opacity="1" stroke-linejoin="round" stroke-miterlimit="10" xmlns:xlink="http://www.w3.org/1999/xlink" stroke-linecap="round" version="1.1" x="0px" points="157.32,398.9 389.78,147.06 273.55,50.2 273.55,495.75 389.78,398.9 157.32,147.06 " d="M18.045,42.312L41.554,16.843C42.682,15.621,42.556,13.705,41.279,12.64L29.525,2.845C27.632,1.268,24.759,2.613,24.759,5.077L24.759,50.136C24.759,52.599,27.632,53.945,29.524,52.368L41.279,42.573C42.556,41.509,42.682,39.592,41.554,38.371L18.045,12.902C16.957,11.723,15.118,11.649,13.939,12.737C12.76,13.826,12.687,15.664,13.775,16.843L37.284,42.312L37.559,38.109L25.804,47.904L30.57,50.136L30.57,5.077L25.804,7.309L37.559,17.104L37.284,12.902L13.775,38.371C12.687,39.55,12.76,41.388,13.939,42.476C15.118,43.565,16.957,43.491,18.045,42.312Z"/>
  <path xmlns:xlink="http://www.w3.org/1999/xlink" cx="273.55" fill="#000000" stroke-dasharray="none" stroke="none" fill-opacity="1" y="0px" cy="272.98" stroke-miterlimit="10" x="0px" stroke-linejoin="miter" stroke-linecap="butt" stroke-width="26px" r="259.15" fill-rule="nonzero" xml:space="preserve" version="1.1" stroke-opacity="1" d="M50.967,27.607C50.967,40.477,40.534,50.909,27.664,50.909C14.795,50.909,4.362,40.477,4.362,27.607C4.362,14.737,14.795,4.304,27.664,4.304C40.534,4.304,50.967,14.737,50.967,27.607ZM56.778,27.607C56.778,11.528,43.743,-1.507,27.664,-1.507C11.585,-1.507,-1.449,11.528,-1.449,27.607C-1.449,43.686,11.585,56.72,27.664,56.72C43.743,56.72,56.778,43.686,56.778,27.607Z"/>
  <path stroke-opacity="1" fill-opacity="1" stroke-dasharray="none" stroke-width="40px" y="0px" fill="#000000" fill-rule="nonzero" stroke-linecap="butt" stroke="none" xml:space="preserve" stroke-miterlimit="10" x="0px" version="1.1" xmlns:xlink="http://www.w3.org/1999/xlink" stroke-linejoin="miter" d="M12.205,5.983L35.039,53.163L43.086,49.269L20.252,2.089L12.205,5.983ZM20.252,2.089L12.205,5.983L35.039,53.163L43.086,49.269L20.252,2.089Z"/>
</g>
  <g id="Heavy-S" transform="matrix(1.0,0.0,0.0,1.0,2610.2989637014853,633.1849448242187)">  <path points="157.32,398.9 389.78,147.06 273.55,50.2 273.55,495.75 389.78,398.9 157.32,147.06 " stroke="none" stroke-dasharray="none" fill-rule="nonzero" y="0px" stroke-linejoin="round" xmlns:xlink="http://www.w3.org/1999/xlink" x="0px" stroke-opacity="1" version="1.1" xml:space="preserve" fill-opacity="1" stroke-linecap="round" stroke-miterlimit="10" stroke-width="26px" fill="#000000" d="M17.811,42.096L41.32,16.627C42.324,15.539,42.213,13.832,41.075,12.885L29.321,3.089C27.636,1.685,25.077,2.883,25.077,5.077L25.077,50.136C25.077,52.329,27.636,53.528,29.321,52.124L41.075,42.329C42.213,41.381,42.324,39.674,41.32,38.586L17.811,13.117C16.842,12.067,15.205,12.002,14.155,12.971C13.105,13.94,13.04,15.577,14.009,16.627L37.518,42.096L37.763,38.354L26.008,48.148L30.252,50.136L30.252,5.077L26.008,7.064L37.763,16.86L37.518,13.117L14.009,38.586C13.04,39.636,13.105,41.273,14.155,42.242C15.205,43.212,16.842,43.146,17.811,42.096Z"/>
  <path xml:space="preserve" r="259.15" stroke-linecap="butt" stroke-dasharray="none" cx="273.55" cy="272.98" y="0px" stroke-miterlimit="10" xmlns:xlink="http://www.w3.org/1999/xlink" stroke-linejoin="miter" fill-opacity="1" version="1.1" fill-rule="nonzero" stroke-opacity="1" stroke="none" x="0px" stroke-width="26px" fill="#000000" d="M51.285,27.607C51.285,40.652,40.71,51.228,27.664,51.228C14.619,51.228,4.044,40.652,4.044,27.607C4.044,14.561,14.619,3.986,27.664,3.986C40.71,3.986,51.285,14.561,51.285,27.607ZM56.46,27.607C56.46,11.703,43.568,-1.189,27.664,-1.189C11.761,-1.189,-1.131,11.703,-1.131,27.607C-1.131,43.51,11.761,56.402,27.664,56.402C43.568,56.402,56.46,43.51,56.46,27.607Z"/>
  <path fill="#000000" fill-opacity="1" stroke-linejoin="miter" stroke-miterlimit="10" stroke="none" version="1.1" stroke-width="40px" xml:space="preserve" stroke-opacity="1" xmlns:xlink="http://www.w3.org/1999/xlink" stroke-linecap="butt" y="0px" x="0px" stroke-dasharray="none" fill-rule="nonzero" d="M12.646,5.77L35.48,52.95L42.646,49.482L19.811,2.302L12.646,5.77ZM19.811,2.302L12.646,5.77L35.48,52.95L42.646,49.482L19.811,2.302Z"/>
</g>
  <g id="Bold-S" transform="matrix(1.0,0.0,0.0,1.0,2313.588963701485,633.1849448242187)">  <path stroke-linejoin="round" stroke-miterlimit="10" stroke-linecap="round" xmlns:xlink="http://www.w3.org/1999/xlink" fill-rule="nonzero" stroke-width="26px" stroke-opacity="1" xml:space="preserve" points="157.32,398.9 389.78,147.06 273.55,50.2 273.55,495.75 389.78,398.9 157.32,147.06 " fill="#000000" fill-opacity="1" x="0px" version="1.1" stroke="none" y="0px" stroke-dasharray="none" d="M17.577,41.88L41.086,16.411C41.967,15.457,41.869,13.96,40.872,13.129L29.117,3.334C27.639,2.102,25.395,3.153,25.395,5.077L25.395,50.136C25.395,52.06,27.639,53.111,29.117,51.879L40.872,42.085C41.869,41.253,41.967,39.756,41.086,38.802L17.577,13.333C16.727,12.412,15.292,12.355,14.371,13.205C13.45,14.055,13.393,15.491,14.243,16.411L37.752,41.88L37.966,38.598L26.212,48.393L29.934,50.136L29.934,5.077L26.212,6.82L37.966,16.616L37.752,13.333L14.243,38.802C13.393,39.723,13.45,41.159,14.371,42.009C15.292,42.859,16.727,42.801,17.577,41.88Z"/>
  <path r="259.15" stroke-dasharray="none" stroke-miterlimit="10" fill-opacity="1" xmlns:xlink="http://www.w3.org/1999/xlink" cy="272.98" fill-rule="nonzero" fill="#000000" stroke-width="26px" y="0px" cx="273.55" x="0px" stroke-linecap="butt" stroke-opacity="1" version="1.1" stroke-linejoin="miter" xml:space="preserve" stroke="none" d="M51.603,27.607C51.603,40.828,40.886,51.546,27.664,51.546C14.443,51.546,3.725,40.828,3.725,27.607C3.725,14.386,14.443,3.668,27.664,3.668C40.886,3.668,51.603,14.386,51.603,27.607ZM56.142,27.607C56.142,11.879,43.392,-0.871,27.664,-0.871C11.937,-0.871,-0.813,11.879,-0.813,27.607C-0.813,43.334,11.937,56.084,27.664,56.084C43.392,56.084,56.142,43.334,56.142,27.607Z"/>
  <path fill="#000000" fill-rule="nonzero" stroke-dasharray="none" stroke-width="40px" xmlns:xlink="http://www.w3.org/1999/xlink" stroke-opacity="1" xml:space="preserve" x="0px" stroke-linecap="butt" version="1.1" y="0px" stroke-linejoin="miter" fill-opacity="1" stroke-miterlimit="10" stroke="none" d="M13.086,5.557L35.921,52.737L42.205,49.695L19.371,2.515L13.086,5.557ZM19.371,2.515L13.086,5.557L35.921,52.737L42.205,49.695L19.371,2.515Z"/>
</g>
  <g id="Semibold-S" transform="matrix(1.0,0.0,0.0,1.0,2016.8789637014852,633.1849448242187)">  <path y="0px" stroke-opacity="1" x="0px" xmlns:xlink="http://www.w3.org/1999/xlink" xml:space="preserve" version="1.1" stroke-dasharray="none" points="157.32,398.9 389.78,147.06 273.55,50.2 273.55,495.75 389.78,398.9 157.32,147.06 " stroke-width="26px" stroke-linejoin="round" stroke="none" fill-opacity="1" fill="#000000" stroke-linecap="round" fill-rule="nonzero" stroke-miterlimit="10" d="M17.344,41.665L40.853,16.196C41.61,15.375,41.526,14.088,40.668,13.374L28.913,3.578C27.643,2.519,25.713,3.423,25.713,5.077L25.713,50.136C25.713,51.79,27.643,52.694,28.913,51.635L40.668,41.84C41.526,41.125,41.61,39.838,40.853,39.018L17.344,13.549C16.613,12.757,15.378,12.708,14.587,13.439C13.795,14.17,13.745,15.404,14.476,16.196L37.985,41.665L38.17,38.842L26.416,48.637L29.615,50.136L29.615,5.077L26.415,6.576L38.17,16.371L37.985,13.549L14.476,39.018C13.745,39.81,13.795,41.044,14.587,41.775C15.378,42.506,16.613,42.456,17.344,41.665Z"/>
  <path y="0px" stroke-linejoin="miter" stroke-miterlimit="10" version="1.1" cy="272.98" stroke-width="26px" xmlns:xlink="http://www.w3.org/1999/xlink" stroke-dasharray="none" xml:space="preserve" r="259.15" fill-opacity="1" x="0px" fill-rule="nonzero" stroke="none" cx="273.55" fill="#000000" stroke-linecap="butt" stroke-opacity="1" d="M51.922,27.607C51.922,41.004,41.061,51.864,27.664,51.864C14.268,51.864,3.407,41.004,3.407,27.607C3.407,14.21,14.268,3.35,27.664,3.35C41.061,3.35,51.922,14.21,51.922,27.607ZM55.824,27.607C55.824,12.055,43.216,-0.552,27.664,-0.552C12.113,-0.552,-0.495,12.055,-0.495,27.607C-0.495,43.159,12.113,55.766,27.664,55.766C43.216,55.766,55.824,43.159,55.824,27.607Z"/>
  <path stroke-dasharray="none" fill-rule="nonzero" fill="#000000" stroke-linejoin="miter" y="0px" stroke-opacity="1" version="1.1" stroke-miterlimit="10" stroke-linecap="butt" fill-opacity="1" x="0px" xml:space="preserve" stroke="none" xmlns:xlink="http://www.w3.org/1999/xlink" stroke-width="40px" d="M13.527,5.344L36.361,52.524L41.765,49.908L18.93,2.729L13.527,5.344ZM18.93,2.729L13.527,5.344L36.361,52.524L41.765,49.908L18.93,2.729Z"/>
</g>
  <g id="Medium-S" transform="matrix(1.0,0.0,0.0,1.0,1720.1689637014852,633.1849448242187)">  <path stroke-miterlimit="10" y="0px" version="1.1" x="0px" xmlns:xlink="http://www.w3.org/1999/xlink" fill-rule="nonzero" stroke-linecap="round" xml:space="preserve" points="157.32,398.9 389.78,147.06 273.55,50.2 273.55,495.75 389.78,398.9 157.32,147.06 " fill="#000000" stroke-opacity="1" fill-opacity="1" stroke-width="26px" stroke="none" stroke-dasharray="none" stroke-linejoin="round" d="M17.11,41.449L40.619,15.98C41.252,15.293,41.182,14.216,40.464,13.618L28.71,3.822C27.646,2.936,26.032,3.692,26.032,5.077L26.032,50.136C26.032,51.52,27.646,52.276,28.71,51.39L40.464,41.596C41.182,40.998,41.253,39.92,40.619,39.234L17.11,13.765C16.498,13.102,15.465,13.061,14.802,13.673C14.14,14.284,14.098,15.317,14.71,15.98L38.219,41.449L38.374,39.087L26.619,48.881L29.297,50.136L29.297,5.077L26.619,6.331L38.374,16.127L38.219,13.765L14.71,39.234C14.098,39.896,14.14,40.929,14.802,41.541C15.465,42.153,16.498,42.111,17.11,41.449Z"/>
  <path xmlns:xlink="http://www.w3.org/1999/xlink" r="259.15" stroke="none" cy="272.98" fill="#000000" version="1.1" stroke-linejoin="miter" fill-rule="nonzero" y="0px" cx="273.55" stroke-miterlimit="10" x="0px" fill-opacity="1" stroke-dasharray="none" stroke-linecap="butt" stroke-width="26px" xml:space="preserve" stroke-opacity="1" d="M52.24,27.607C52.24,41.179,41.237,52.182,27.664,52.182C14.092,52.182,3.089,41.179,3.089,27.607C3.089,14.034,14.092,3.032,27.664,3.032C41.237,3.032,52.24,14.034,52.24,27.607ZM55.505,27.607C55.505,12.231,43.041,-0.234,27.664,-0.234C12.288,-0.234,-0.177,12.231,-0.177,27.607C-0.177,42.983,12.288,55.448,27.664,55.448C43.041,55.448,55.505,42.983,55.505,27.607Z"/>
  <path stroke-dasharray="none" y="0px" stroke-linecap="butt" fill-opacity="1" x="0px" fill-rule="nonzero" xml:space="preserve" stroke-linejoin="miter" stroke-opacity="1" stroke="none" fill="#000000" xmlns:xlink="http://www.w3.org/1999/xlink" stroke-miterlimit="10" version="1.1" stroke-width="40px" d="M13.967,5.131L36.802,52.31L41.324,50.122L18.49,2.942L13.967,5.131ZM18.49,2.942L13.967,5.131L36.802,52.31L41.324,50.122L18.49,2.942Z"/>
</g>
  <g id="Regular-S" transform="matrix(1.0,0.0,0.0,1.0,1423.4589637014851,633.1849448242187)">  <path stroke-dasharray="none" stroke-linejoin="round" y="0px" stroke-opacity="1" xmlns:xlink="http://www.w3.org/1999/xlink" stroke-linecap="round" fill-opacity="1" x="0px" points="157.32,398.9 389.78,147.06 273.55,50.2 273.55,495.75 389.78,398.9 157.32,147.06 " fill-rule="nonzero" stroke-miterlimit="10" version="1.1" stroke="none" stroke-width="26px" fill="#000000" xml:space="preserve" d="M16.876,41.233L40.385,15.764C40.895,15.211,40.838,14.344,40.261,13.862L28.506,4.067C27.65,3.353,26.35,3.962,26.35,5.077L26.35,50.136C26.35,51.25,27.65,51.859,28.506,51.146L40.261,41.351C40.838,40.87,40.895,40.002,40.385,39.45L16.876,13.981C16.384,13.447,15.552,13.414,15.018,13.906C14.485,14.399,14.451,15.231,14.944,15.764L38.453,41.233L38.577,39.331L26.823,49.126L28.979,50.136L28.979,5.077L26.823,6.087L38.577,15.882L38.453,13.981L14.944,39.45C14.451,39.983,14.485,40.815,15.018,41.307C15.552,41.8,16.384,41.767,16.876,41.233Z"/>
  <path stroke-width="26px" fill-rule="nonzero" stroke="none" stroke-dasharray="none" cx="273.55" y="0px" xmlns:xlink="http://www.w3.org/1999/xlink" fill="#000000" stroke-linejoin="miter" x="0px" xml:space="preserve" stroke-miterlimit="10" r="259.15" stroke-opacity="1" fill-opacity="1" stroke-linecap="butt" version="1.1" cy="272.98" d="M52.558,27.607C52.558,41.355,41.413,52.5,27.664,52.5C13.916,52.5,2.771,41.355,2.771,27.607C2.771,13.859,13.916,2.713,27.664,2.713C41.413,2.713,52.558,13.859,52.558,27.607ZM55.187,27.607C55.187,12.406,42.865,0.084,27.664,0.084C12.464,0.084,0.142,12.406,0.142,27.607C0.142,42.807,12.464,55.13,27.664,55.13C42.865,55.13,55.187,42.807,55.187,27.607Z"/>
  <path xmlns:xlink="http://www.w3.org/1999/xlink" y="0px" fill-opacity="1" x="0px" stroke-opacity="1" stroke-miterlimit="10" stroke-linecap="butt" stroke-dasharray="none" stroke="none" xml:space="preserve" stroke-width="40px" fill="#000000" fill-rule="nonzero" stroke-linejoin="miter" version="1.1" d="M14.408,4.917L37.242,52.097L40.884,50.335L18.049,3.155L14.408,4.917ZM18.049,3.155L14.408,4.917L37.242,52.097L40.884,50.335L18.049,3.155Z"/>
</g>
  <g id="Light-S" transform="matrix(1.0,0.0,0.0,1.0,1126.7489637014853,633.1849448242187)">  <path stroke-linejoin="round" points="157.32,398.9 389.78,147.06 273.55,50.2 273.55,495.75 389.78,398.9 157.32,147.06 " fill-rule="nonzero" xmlns:xlink="http://www.w3.org/1999/xlink" y="0px" version="1.1" fill="#000000" xml:space="preserve" stroke-width="26px" stroke-opacity="1" x="0px" stroke-miterlimit="10" stroke-linecap="round" fill-opacity="1" stroke="none" stroke-dasharray="none" d="M16.715,41.084L40.224,15.615C40.649,15.155,40.602,14.432,40.12,14.031L28.366,4.235C27.652,3.64,26.569,4.148,26.569,5.077L26.569,50.136C26.569,51.065,27.652,51.572,28.366,50.978L40.12,41.183C40.602,40.782,40.649,40.059,40.224,39.598L16.715,14.129C16.305,13.685,15.611,13.657,15.167,14.067C14.722,14.478,14.695,15.171,15.105,15.615L38.614,41.084L38.718,39.5L26.963,49.294L28.76,50.136L28.76,5.077L26.963,5.918L38.718,15.714L38.614,14.129L15.105,39.598C14.695,40.043,14.722,40.736,15.167,41.146C15.611,41.557,16.305,41.529,16.715,41.084Z"/>
  <path stroke-miterlimit="10" fill-rule="nonzero" y="0px" stroke-opacity="1" cy="272.98" fill="#000000" stroke-linecap="butt" fill-opacity="1" r="259.15" stroke="none" stroke-dasharray="none" x="0px" xml:space="preserve" version="1.1" stroke-linejoin="miter" stroke-width="26px" cx="273.55" xmlns:xlink="http://www.w3.org/1999/xlink" d="M52.777,27.607C52.777,41.476,41.534,52.719,27.664,52.719C13.795,52.719,2.552,41.476,2.552,27.607C2.552,13.738,13.795,2.494,27.664,2.494C41.534,2.494,52.777,13.738,52.777,27.607ZM54.968,27.607C54.968,12.527,42.744,0.303,27.664,0.303C12.585,0.303,0.361,12.527,0.361,27.607C0.361,42.686,12.585,54.911,27.664,54.911C42.744,54.911,54.968,42.686,54.968,27.607Z"/>
  <path version="1.1" fill-opacity="1" stroke-width="40px" stroke-linejoin="miter" stroke-linecap="butt" stroke-miterlimit="10" stroke-dasharray="none" y="0px" stroke="none" xmlns:xlink="http://www.w3.org/1999/xlink" stroke-opacity="1" xml:space="preserve" fill="#000000" fill-rule="nonzero" x="0px" d="M14.711,4.77L37.546,51.95L40.58,50.482L17.746,3.302L14.711,4.77ZM17.746,3.302L14.711,4.77L37.546,51.95L40.58,50.482L17.746,3.302Z"/>
</g>
  <g id="Thin-S" transform="matrix(1.0,0.0,0.0,1.0,830.0389637014854,633.1849448242187)">  <path y="0px" stroke-linejoin="round" fill-rule="nonzero" fill-opacity="1" fill="#000000" xmlns:xlink="http://www.w3.org/1999/xlink" x="0px" stroke-dasharray="none" version="1.1" xml:space="preserve" stroke="none" stroke-linecap="round" stroke-opacity="1" stroke-miterlimit="10" points="157.32,398.9 389.78,147.06 273.55,50.2 273.55,495.75 389.78,398.9 157.32,147.06 " stroke-width="26px" d="M16.554,40.936L40.063,15.467C40.403,15.098,40.365,14.52,39.98,14.199L28.226,4.403C27.655,3.928,26.788,4.334,26.788,5.077L26.788,50.136C26.788,50.879,27.655,51.285,28.226,50.809L39.98,41.015C40.365,40.694,40.403,40.115,40.063,39.747L16.554,14.278C16.226,13.922,15.671,13.9,15.315,14.228C14.96,14.557,14.938,15.111,15.266,15.467L38.775,40.936L38.858,39.668L27.103,49.462L28.541,50.136L28.541,5.077L27.103,5.75L38.858,15.546L38.775,14.278L15.266,39.747C14.938,40.102,14.96,40.657,15.315,40.985C15.671,41.314,16.226,41.291,16.554,40.936Z"/>
  <path r="259.15" cx="273.55" fill-opacity="1" xml:space="preserve" x="0px" stroke-linejoin="miter" version="1.1" stroke-dasharray="none" fill="#000000" y="0px" stroke-miterlimit="10" fill-rule="nonzero" stroke-linecap="butt" cy="272.98" xmlns:xlink="http://www.w3.org/1999/xlink" stroke="none" stroke-opacity="1" stroke-width="26px" d="M52.996,27.607C52.996,41.597,41.655,52.939,27.664,52.939C13.674,52.939,2.333,41.597,2.333,27.607C2.333,13.617,13.674,2.275,27.664,2.275C41.655,2.275,52.996,13.617,52.996,27.607ZM54.749,27.607C54.749,12.648,42.623,0.522,27.664,0.522C12.706,0.522,0.58,12.648,0.58,27.607C0.58,42.565,12.706,54.691,27.664,54.691C42.623,54.691,54.749,42.565,54.749,27.607Z"/>
  <path stroke-miterlimit="10" stroke-linejoin="miter" x="0px" stroke-linecap="butt" y="0px" fill-rule="nonzero" fill="#000000" stroke-opacity="1" stroke-dasharray="none" xml:space="preserve" fill-opacity="1" stroke="none" xmlns:xlink="http://www.w3.org/1999/xlink" version="1.1" stroke-width="40px" d="M15.015,4.624L37.849,51.803L40.277,50.628L17.442,3.449L15.015,4.624ZM17.442,3.449L15.015,4.624L37.849,51.803L40.277,50.628L17.442,3.449Z"/>
</g>
  <g id="Ultralight-S" transform="matrix(1.0,0.0,0.0,1.0,533.3289637014853,633.1849448242187)">  <path points="157.32,398.9 389.78,147.06 273.55,50.2 273.55,495.75 389.78,398.9 157.32,147.06 " y="0px" stroke-linecap="round" xmlns:xlink="http://www.w3.org/1999/xlink" x="0px" fill="#000000" stroke-linejoin="round" stroke-miterlimit="10" stroke-width="26px" stroke="none" stroke-dasharray="none" xml:space="preserve" fill-rule="nonzero" fill-opacity="1" stroke-opacity="1" version="1.1" d="M16.393,40.787L39.902,15.318C40.157,15.042,40.129,14.608,39.84,14.367L28.085,4.572C27.657,4.215,27.007,4.519,27.007,5.077L27.007,50.136C27.007,50.693,27.657,50.998,28.085,50.641L39.84,40.846C40.129,40.605,40.157,40.172,39.902,39.895L16.393,14.427C16.147,14.16,15.731,14.143,15.464,14.389C15.197,14.636,15.181,15.051,15.427,15.318L38.936,40.787L38.998,39.836L27.244,49.631L28.322,50.136L28.322,5.077L27.244,5.582L38.998,15.377L38.936,14.427L15.427,39.895C15.181,40.162,15.197,40.578,15.464,40.824C15.731,41.071,16.147,41.054,16.393,40.787Z"/>
  <path y="0px" stroke-linecap="butt" stroke="none" r="259.15" fill-opacity="1" fill-rule="nonzero" stroke-dasharray="none" cy="272.98" version="1.1" x="0px" stroke-opacity="1" fill="#000000" stroke-width="26px" stroke-linejoin="miter" xmlns:xlink="http://www.w3.org/1999/xlink" xml:space="preserve" cx="273.55" stroke-miterlimit="10" d="M53.215,27.607C53.215,41.718,41.776,53.158,27.664,53.158C13.553,53.158,2.114,41.718,2.114,27.607C2.114,13.495,13.553,2.056,27.664,2.056C41.776,2.056,53.215,13.495,53.215,27.607ZM54.53,27.607C54.53,12.769,42.502,0.741,27.664,0.741C12.827,0.741,0.799,12.769,0.799,27.607C0.799,42.444,12.827,54.472,27.664,54.472C42.502,54.472,54.53,42.444,54.53,27.607Z"/>
  <path stroke="none" stroke-width="40px" version="1.1" stroke-dasharray="none" y="0px" stroke-miterlimit="10" xmlns:xlink="http://www.w3.org/1999/xlink" x="0px" fill-opacity="1" stroke-linejoin="miter" xml:space="preserve" fill-rule="nonzero" fill="#000000" stroke-opacity="1" stroke-linecap="butt" d="M15.318,4.477L38.153,51.656L39.973,50.775L17.139,3.596L15.318,4.477ZM17.139,3.596L15.318,4.477L38.153,51.656L39.973,50.775L17.139,3.596Z"/>
</g>
 </g>
</svg>
