<?xml version="1.0" encoding="utf-8"?>
<!-- Generator: Adobe Illustrator 25.2.0, SVG Export Plug-In . SVG Version: 6.00 Build 0)  -->
<svg version="1.1" id="Layer_1" xmlns="http://www.w3.org/2000/svg" xmlns:xlink="http://www.w3.org/1999/xlink" x="0px" y="0px"
	 viewBox="0 0 3300 2200" style="enable-background:new 0 0 3300 2200;" xml:space="preserve">
<style type="text/css">
	.st0{fill:#FFFFFF;}
	.st1{fill:none;stroke:#000000;stroke-width:0.5;}
	.st2{font-family:'Arial-BoldMT';}
	.st3{font-size:12px;}
	.st4{font-family:'ArialMT';}
	.st5{fill:none;stroke:#00AEEF;stroke-width:0.5;}
	.st6{fill:#27AAE1;}
	.st7{fill:none;stroke:#27AAE1;stroke-width:0.5;}
	.st8{fill:#0A0449;}
</style>
<g id="Notes">
	<rect id="artboard" x="-86.4" y="-70.3" class="st0" width="3300" height="2200"/>
	<line class="st1" x1="176.6" y1="221.7" x2="2949.6" y2="221.7"/>
	<text transform="matrix(1 0 0 1 176.6376 251.6967)" class="st2 st3">Weight/Scale Variations</text>
	<text transform="matrix(1 0 0 1 449.6738 251.6967)" class="st4 st3">Ultralight</text>
	<text transform="matrix(1 0 0 1 758.3877 251.6967)" class="st4 st3">Thin</text>
	<text transform="matrix(1 0 0 1 1053.7568 251.6967)" class="st4 st3">Light</text>
	<text transform="matrix(1 0 0 1 1342.4658 251.6967)" class="st4 st3">Regular</text>
	<text transform="matrix(1 0 0 1 1638.8578 251.6967)" class="st4 st3">Medium</text>
	<text transform="matrix(1 0 0 1 1931.8939 251.6967)" class="st4 st3">Semibold</text>
	<text transform="matrix(1 0 0 1 2241.6089 251.6967)" class="st4 st3">Bold</text>
	<text transform="matrix(1 0 0 1 2533.3208 251.6967)" class="st4 st3">Heavy</text>
	<text transform="matrix(1 0 0 1 2832.3657 251.6967)" class="st4 st3">Black</text>
	<line class="st1" x1="176.6" y1="1832.7" x2="2949.6" y2="1832.7"/>
	<g transform="matrix(1 0 0 1 263 1933)">
		<path d="M-77.1-69.5c4.3,0,7.9-3.6,7.9-7.9c0-4.3-3.6-7.9-7.9-7.9c-4.3,0-7.9,3.6-7.9,7.9C-85-73-81.4-69.5-77.1-69.5z M-77.1-71
			c-3.5,0-6.4-2.8-6.4-6.4c0-3.6,2.8-6.4,6.4-6.4c3.6,0,6.4,2.8,6.4,6.4C-70.7-73.8-73.6-71-77.1-71z M-77.1-73.9
			c0.5,0,0.7-0.3,0.7-0.8v-1.9h2c0.5,0,0.8-0.3,0.8-0.7c0-0.5-0.3-0.7-0.8-0.7h-2v-2c0-0.5-0.3-0.8-0.7-0.8s-0.7,0.3-0.7,0.8v2h-2
			c-0.5,0-0.8,0.3-0.8,0.7c0,0.5,0.4,0.7,0.8,0.7h2v1.9C-77.9-74.3-77.6-73.9-77.1-73.9z"/>
	</g>
	<g transform="matrix(1 0 0 1 281.506 1933)">
		<path d="M-74.7-67.4c5.4,0,10-4.5,10-10c0-5.4-4.5-10-10-10c-5.4,0-10,4.5-10,10C-84.6-71.9-80.1-67.4-74.7-67.4z M-74.7-69.1
			c-4.6,0-8.3-3.7-8.3-8.3c0-4.6,3.7-8.3,8.3-8.3c4.6,0,8.3,3.7,8.3,8.3C-66.3-72.7-70-69.1-74.7-69.1z M-74.7-73
			c0.5,0,0.8-0.4,0.8-0.9v-2.6h2.8c0.5,0,0.9-0.3,0.9-0.8c0-0.5-0.4-0.8-0.9-0.8h-2.8V-81c0-0.6-0.3-0.9-0.8-0.9
			c-0.5,0-0.8,0.4-0.8,0.9v2.8h-2.8c-0.6,0-0.9,0.3-0.9,0.8c0,0.5,0.4,0.8,0.9,0.8h2.8v2.6C-75.5-73.3-75.2-73-74.7-73z"/>
	</g>
	<g transform="matrix(1 0 0 1 304.924 1933)">
		<path d="M-71.4-64.6c7,0,12.7-5.8,12.7-12.7c0-7-5.8-12.7-12.7-12.7c-7,0-12.7,5.8-12.7,12.7C-84.1-70.4-78.3-64.6-71.4-64.6z
			 M-71.4-66.5c-6,0-10.9-4.9-10.9-10.9c0-6,4.8-10.9,10.9-10.9c6,0,10.9,4.9,10.9,10.9C-60.5-71.3-65.3-66.5-71.4-66.5z
			 M-71.4-71.7c0.6,0,0.9-0.4,0.9-1v-3.8h3.9c0.6,0,1-0.3,1-0.9c0-0.6-0.4-0.9-1-0.9h-3.9v-3.9c0-0.6-0.3-1-0.9-1
			c-0.6,0-0.9,0.4-0.9,1v3.9h-3.9c-0.6,0-1,0.3-1,0.9c0,0.6,0.4,0.9,1,0.9h3.9v3.8C-72.3-72.1-72-71.7-71.4-71.7z"/>
	</g>
	<text transform="matrix(1 0 0 1 176.6376 1882.6967)" class="st2 st3">Design Variations</text>
	<text transform="matrix(1 0 0 1 176.6376 1900.6967)" class="st4 st3">Symbols are supported in up to nine weights and three scales.</text>
	<text transform="matrix(1 0 0 1 176.6376 1918.6967)" class="st4 st3">For optimal layout with text and other symbols, vertically align</text>
	<text transform="matrix(1 0 0 1 176.6376 1936.6967)" class="st4 st3">symbols with the adjacent text.</text>
	<line class="st5" x1="689.6" y1="1848.7" x2="689.6" y2="1862.7"/>
	<g transform="matrix(1 0 0 1 776 1933)">
		<path d="M-83.1-70.2c0.5,0,0.8-0.2,1-0.7l1.3-3.5h5.8l1.3,3.5c0.2,0.5,0.4,0.7,0.9,0.7c0.5,0,0.8-0.3,0.8-0.8c0-0.2,0-0.3-0.1-0.5
			l-4.6-12.2c-0.2-0.6-0.6-0.9-1.2-0.9c-0.6,0-1,0.3-1.2,0.9l-4.6,12.2c-0.1,0.2-0.1,0.4-0.1,0.5C-83.9-70.5-83.6-70.2-83.1-70.2z
			 M-80.4-75.8l2.4-6.6h0l2.4,6.6H-80.4z"/>
	</g>
	<line class="st5" x1="706.5" y1="1848.7" x2="706.5" y2="1862.7"/>
	<text transform="matrix(1 0 0 1 689.6376 1882.6967)" class="st2 st3">Margins</text>
	<text transform="matrix(1 0 0 1 689.6376 1900.6967)" class="st4 st3">Leading and trailing margins on the left and right side of each symbol</text>
	<text transform="matrix(1 0 0 1 689.6376 1918.6967)" class="st4 st3">can be adjusted by modifying the x-location of the margin guidelines.</text>
	<text transform="matrix(1 0 0 1 689.6376 1936.6967)" class="st4 st3">Modifications are automatically applied proportionally to all</text>
	<text transform="matrix(1 0 0 1 689.6376 1954.6967)" class="st4 st3">scales and weights.</text>
	<g transform="matrix(1 0 0 1 1289 1933)">
		<path d="M-83.5-68.4l1.7,1.7c0.9,0.9,1.8,0.8,2.8-0.2l10.2-11.2c0.3,0.1,0.5,0.1,0.8,0l1.1-0.2l0.7,0.7l0,0.6
			c0,0.5,0.1,0.9,0.6,1.4L-65-75c0.5,0.5,1.1,0.5,1.6,0l2.9-2.9c0.5-0.5,0.4-1.1,0-1.5l-0.8-0.8c-0.5-0.5-0.8-0.6-1.3-0.6l-0.6,0
			l-0.6-0.6l0.2-1.1c0.1-0.6,0-1-0.6-1.6l-2.2-2.2c-3.3-3.3-7.8-3.2-10.7-0.4c-0.4,0.4-0.4,1-0.2,1.4c0.2,0.4,0.7,0.6,1.3,0.4
			c1.5-0.3,3-0.4,4.4,0.5l-0.6,1.5c-0.2,0.5-0.2,0.9-0.1,1.2l-11.1,10.4C-84.3-70.3-84.4-69.3-83.5-68.4z M-75.6-86.3
			c2.4-1.8,5.7-1.5,7.9,0.8l2.4,2.4c0.2,0.2,0.3,0.4,0.2,0.8l-0.3,1.5l1.5,1.5l1-0.1c0.3,0,0.3,0,0.5,0.2l0.6,0.6l-2.4,2.4l-0.6-0.6
			C-65-77-65-77.1-65-77.3l0.1-1l-1.5-1.5l-1.5,0.3c-0.3,0.1-0.5,0-0.7-0.2l-2-2c-0.3-0.2-0.3-0.4-0.1-0.8l0.9-2.1
			c-1.6-1.5-3.6-2.1-5.6-1.5C-75.7-86-75.7-86.2-75.6-86.3z M-81.1-68l-1.2-1.2c-0.5-0.5-0.4-0.8,0-1.2l10.8-10.2l1.5,1.5l-10,11
			C-80.3-67.6-80.6-67.5-81.1-68z"/>
	</g>
	<text transform="matrix(1 0 0 1 1202.6376 1882.6967)" class="st2 st3">Exporting</text>
	<text transform="matrix(1 0 0 1 1202.6376 1900.6967)" class="st4 st3">Symbols should be outlined when exporting to ensure the</text>
	<text transform="matrix(1 0 0 1 1202.6376 1918.6967)" class="st4 st3">design is preserved when submitting to Xcode.</text>
	<text id="template-version" transform="matrix(1 0 0 1 2872.4873 1862.6967)" class="st4 st3">Template v.2.0</text>
	<text transform="matrix(1 0 0 1 2792.2139 1880.6967)" class="st4 st3">Requires Xcode 12 or greater</text>
	<text transform="matrix(1 0 0 1 2748.8428 1898.6967)" class="st4 st3">Generated from rectangle.roundedtop</text>
	<text transform="matrix(1 0 0 1 2835.5615 1916.6967)" class="st4 st3">Typeset at 100 points</text>
	<text transform="matrix(1 0 0 1 176.6376 655.6967)" class="st4 st3">Small</text>
	<text transform="matrix(1 0 0 1 176.6376 1085.6968)" class="st4 st3">Medium</text>
	<text transform="matrix(1 0 0 1 176.6376 1515.6967)" class="st4 st3">Large</text>
</g>
<g id="Guides">
	<g id="H-reference" transform="matrix(1 0 0 1 339 696)">
		<path class="st6" d="M1,0h2.7L13-24.5h32.8L55.1,0h2.6L30.6-70.5h-2.5L1,0z M29.3-67.1L29.3-67.1l15.5,40.4h-31L29.3-67.1z"/>
	</g>
	<line id="Baseline-S" class="st7" x1="263" y1="696" x2="3036" y2="696"/>
	<line id="Capline-S" class="st7" x1="263" y1="625.5" x2="3036" y2="625.5"/>
	<g id="H-reference_1_" transform="matrix(1 0 0 1 339 1126)">
		<path class="st6" d="M1,0h2.7L13-24.5h32.8L55.1,0h2.6L30.6-70.5h-2.5L1,0z M29.3-67.1L29.3-67.1l15.5,40.4h-31L29.3-67.1z"/>
	</g>
	<line id="Baseline-M" class="st7" x1="263" y1="1126" x2="3036" y2="1126"/>
	<line id="Capline-M" class="st7" x1="263" y1="1055.5" x2="3036" y2="1055.5"/>
	<g id="H-reference_2_" transform="matrix(1 0 0 1 339 1556)">
		<path class="st6" d="M1,0h2.7L13-24.5h32.8L55.1,0h2.6L30.6-70.5h-2.5L1,0z M29.3-67.1L29.3-67.1l15.5,40.4h-31L29.3-67.1z"/>
	</g>
	<line id="Baseline-L" class="st7" x1="263" y1="1556" x2="3036" y2="1556"/>
	<line id="Capline-L" class="st7" x1="263" y1="1485.5" x2="3036" y2="1485.5"/>
	<line id="left-margin" class="st5" x1="1378.4" y1="1030.8" x2="1378.4" y2="1150.1"/>
	<line id="right-margin" class="st5" x1="1521.3" y1="1030.8" x2="1521.3" y2="1150.1"/>
</g>
<g id="Symbols">
	<g id="Black-L" transform="matrix(1 0 0 1 2839.7 1556)">
		<g>
			<polygon class="st8" points="65,-76.9 2,0.1 65,-52.4 			"/>
			<polygon class="st8" points="146,-97.4 2,13.5 130.1,-46.3 			"/>
			<polygon class="st8" points="2,27.5 140.5,22.5 195.7,-61.8 			"/>
		</g>
	</g>
	<g id="Heavy-L" transform="matrix(1 0 0 1 2543.5 1556)">
		<g>
			<polygon class="st8" points="62.1,-75.5 0.5,-0.3 62.1,-51.6 			"/>
			<polygon class="st8" points="141.2,-95.5 0.5,12.8 125.7,-45.7 			"/>
			<polygon class="st8" points="0.5,26.5 135.9,21.6 189.9,-60.8 			"/>
		</g>
	</g>
	<g id="Bold-L" transform="matrix(1 0 0 1 2247.38 1556)">
		<g>
			<polygon class="st8" points="60,-75.4 -0.8,-1.2 60,-51.8 			"/>
			<polygon class="st8" points="138,-95.1 -0.8,11.8 122.7,-45.9 			"/>
			<polygon class="st8" points="-0.8,25.3 132.8,20.4 186,-60.8 			"/>
		</g>
	</g>
	<g id="Semibold-L" transform="matrix(1 0 0 1 1951.05 1556)">
		<g>
			<polygon class="st8" points="62.9,-75.1 3.1,-1.9 62.9,-51.8 			"/>
			<polygon class="st8" points="139.9,-94.5 3.1,10.9 124.8,-46 			"/>
			<polygon class="st8" points="3.1,24.2 134.7,19.4 187.2,-60.7 			"/>
		</g>
	</g>
	<g id="Medium-L" transform="matrix(1 0 0 1 1654.64 1556)">
		<g>
			<polygon class="st8" points="65.4,-74.4 6.5,-2.4 65.4,-51.5 			"/>
			<polygon class="st8" points="141.2,-93.6 6.5,10.1 126.3,-45.9 			"/>
			<polygon class="st8" points="6.5,23.3 136.1,18.6 187.8,-60.3 			"/>
		</g>
	</g>
	<g id="Regular-L" transform="matrix(1 0 0 1 1358.34 1556)">
		<g>
			<polygon class="st8" points="65.8,-73.2 7.8,-2.4 65.8,-50.7 			"/>
			<polygon class="st8" points="140.2,-92.1 7.8,9.9 125.6,-45.1 			"/>
			<polygon class="st8" points="7.8,22.8 135.2,18.2 186,-59.3 			"/>
		</g>
	</g>
	<g id="Light-L" transform="matrix(1 0 0 1 1062.63 1556)">
		<g>
			<polygon class="st8" points="62.5,-72.8 5.3,-2.8 62.5,-50.6 			"/>
			<polygon class="st8" points="136.1,-91.5 5.3,9.3 121.6,-45.1 			"/>
			<polygon class="st8" points="5.3,22.1 131.1,17.5 181.3,-59.1 			"/>
		</g>
	</g>
	<g id="Thin-L" transform="matrix(1 0 0 1 767.238 1556)">
		<g>
			<polygon class="st8" points="60.8,-72.5 4.7,-3.9 60.8,-50.7 			"/>
			<polygon class="st8" points="132.8,-90.7 4.7,8 118.7,-45.3 			"/>
			<polygon class="st8" points="4.7,20.5 128,16 177.1,-59 			"/>
		</g>
	</g>
	<g id="Ultralight-L" transform="matrix(1 0 0 1 471.186 1556)">
		<g>
			<polygon class="st8" points="63.6,-71.1 9.5,-5 63.6,-50.1 			"/>
			<polygon class="st8" points="133.1,-88.7 9.5,6.5 119.4,-44.9 			"/>
			<polygon class="st8" points="9.5,18.5 128.4,14.2 175.8,-58.2 			"/>
		</g>
	</g>
	<g id="Black-M" transform="matrix(1 0 0 1 2860.6 1126)">
		<g>
			<polygon class="st8" points="51.3,-67.9 2.2,-7.8 51.3,-48.8 			"/>
			<polygon class="st8" points="114.6,-83.9 2.2,2.6 102.1,-44.1 			"/>
			<polygon class="st8" points="2.2,13.6 110.3,9.7 153.4,-56.2 			"/>
		</g>
	</g>
	<g id="Heavy-M" transform="matrix(1 0 0 1 2564.2 1126)">
		<g>
			<polygon class="st8" points="47.3,-67.6 -1.3,-8.2 47.3,-48.7 			"/>
			<polygon class="st8" points="109.8,-83.4 -1.3,2.2 97.6,-44 			"/>
			<polygon class="st8" points="-1.3,13 105.6,9.1 148.3,-56 			"/>
		</g>
	</g>
	<g id="Bold-M" transform="matrix(1 0 0 1 2267.83 1126)">
		<g>
			<polygon class="st8" points="50.5,-66.7 3.3,-8.9 50.5,-48.3 			"/>
			<polygon class="st8" points="111.2,-82 3.3,1.1 99.3,-43.8 			"/>
			<polygon class="st8" points="3.3,11.6 107.1,7.9 148.6,-55.4 			"/>
		</g>
	</g>
	<g id="Semibold-M" transform="matrix(1 0 0 1 1971.37 1126)">
		<g>
			<polygon class="st8" points="50.4,-66.1 3.6,-8.9 50.4,-47.9 			"/>
			<polygon class="st8" points="110.5,-81.3 3.6,1 98.7,-43.4 			"/>
			<polygon class="st8" points="3.6,11.4 106.5,7.7 147.5,-54.9 			"/>
		</g>
	</g>
	<g id="Medium-M" transform="matrix(1 0 0 1 1674.83 1126)">
		<g>
			<polygon class="st8" points="48.4,-65.9 2.3,-9.6 48.4,-48 			"/>
			<polygon class="st8" points="107.6,-80.9 2.3,0.2 96,-43.6 			"/>
			<polygon class="st8" points="2.3,10.4 103.6,6.8 144,-54.9 			"/>
		</g>
	</g>
	<g id="Regular-M" transform="matrix(1 0 0 1 1378.36 1126)">
		<g>
			<polygon class="st8" points="47.8,-65.4 2.4,-9.9 47.8,-47.7 			"/>
			<polygon class="st8" points="106.2,-80.1 2.4,-0.2 94.7,-43.4 			"/>
			<polygon class="st8" points="2.4,9.9 102.3,6.3 142.1,-54.5 			"/>
		</g>
	</g>
	<g id="Light-M" transform="matrix(1 0 0 1 1082.53 1126)">
		<g>
			<polygon class="st8" points="48.6,-64.6 4,-10.1 48.6,-47.3 			"/>
			<polygon class="st8" points="106,-79.1 4,-0.6 94.7,-43 			"/>
			<polygon class="st8" points="4,9.4 102.1,5.8 141.2,-53.9 			"/>
		</g>
	</g>
	<g id="Thin-M" transform="matrix(1 0 0 1 787.013 1126)">
		<g>
			<polygon class="st8" points="48.4,-64.2 4.8,-10.9 48.4,-47.2 			"/>
			<polygon class="st8" points="104.5,-78.4 4.8,-1.6 93.4,-43 			"/>
			<polygon class="st8" points="4.8,8.1 100.7,4.6 138.9,-53.7 			"/>
		</g>
	</g>
	<g id="Ultralight-M" transform="matrix(1 0 0 1 490.912 1126)">
		<g>
			<polygon class="st8" points="45.7,-63.8 2.7,-11.3 45.7,-47.1 			"/>
			<polygon class="st8" points="100.9,-77.8 2.7,-2.2 90.1,-43 			"/>
			<polygon class="st8" points="2.7,7.4 97.2,3.9 134.9,-53.6 			"/>
		</g>
	</g>
	<g id="Black-S" transform="matrix(1 0 0 1 2876.37 696)">
		<g>
			<polygon class="st8" points="37.8,-60.8 -0.6,-13.8 37.8,-45.9 			"/>
			<polygon class="st8" points="87.3,-73.3 -0.6,-5.6 77.6,-42.2 			"/>
			<polygon class="st8" points="-0.6,2.9 83.9,-0.1 117.7,-51.6 			"/>
		</g>
	</g>
	<g id="Heavy-S" transform="matrix(1 0 0 1 2579.8 696)">
		<g>
			<polygon class="st8" points="36.5,-60.4 -1.4,-14.1 36.5,-45.7 			"/>
			<polygon class="st8" points="85.2,-72.8 -1.4,-6 75.7,-42 			"/>
			<polygon class="st8" points="-1.4,2.4 82,-0.6 115.2,-51.3 			"/>
		</g>
	</g>
	<g id="Bold-S" transform="matrix(1 0 0 1 2283.24 696)">
		<g>
			<polygon class="st8" points="38.7,-59.7 1.6,-14.3 38.7,-45.3 			"/>
			<polygon class="st8" points="86.5,-71.8 1.6,-6.4 77.1,-41.7 			"/>
			<polygon class="st8" points="1.6,1.9 83.3,-1.1 115.9,-50.8 			"/>
		</g>
	</g>
	<g id="Semibold-S" transform="matrix(1 0 0 1 1986.63 696)">
		<g>
			<polygon class="st8" points="40,-58.9 4.5,-15.4 40,-45.1 			"/>
			<polygon class="st8" points="85.7,-70.4 4.5,-7.9 76.7,-41.6 			"/>
			<polygon class="st8" points="4.5,0 82.6,-2.8 113.8,-50.4 			"/>
		</g>
	</g>
	<g id="Medium-S" transform="matrix(1 0 0 1 1689.99 696)">
		<g>
			<polygon class="st8" points="40.4,-58.4 5.5,-15.8 40.4,-44.9 			"/>
			<polygon class="st8" points="85.2,-69.8 5.5,-8.4 76.4,-41.5 			"/>
			<polygon class="st8" points="5.5,-0.6 82.2,-3.4 112.8,-50.1 			"/>
		</g>
	</g>
	<g id="Regular-S" transform="matrix(1 0 0 1 1393.4 696)">
		<g>
			<polygon class="st8" points="40.2,-58.6 4.9,-15.5 40.2,-44.9 			"/>
			<polygon class="st8" points="85.5,-70.1 4.9,-8 76.6,-41.5 			"/>
			<polygon class="st8" points="4.9,-0.2 82.5,-3 113.4,-50.2 			"/>
		</g>
	</g>
	<g id="Light-S" transform="matrix(1 0 0 1 1097.47 696)">
		<g>
			<polygon class="st8" points="37.1,-58.3 2.3,-15.7 37.1,-44.7 			"/>
			<polygon class="st8" points="81.8,-69.6 2.3,-8.4 73,-41.4 			"/>
			<polygon class="st8" points="2.3,-0.6 78.8,-3.4 109.3,-49.9 			"/>
		</g>
	</g>
	<g id="Thin-S" transform="matrix(1 0 0 1 801.808 696)">
		<g>
			<polygon class="st8" points="41.3,-57.4 8.1,-16.7 41.3,-44.4 			"/>
			<polygon class="st8" points="84,-68.2 8.1,-9.7 75.6,-41.2 			"/>
			<polygon class="st8" points="8.1,-2.3 81.1,-4.9 110.2,-49.4 			"/>
		</g>
	</g>
	<g id="Ultralight-S" transform="matrix(1 0 0 1 505.634 696)">
		<g>
			<polygon class="st8" points="37.4,-57 4.3,-16.5 37.4,-44.1 			"/>
			<polygon class="st8" points="80,-67.8 4.3,-9.5 71.6,-40.9 			"/>
			<polygon class="st8" points="4.3,-2.1 77.1,-4.7 106.1,-49.1 			"/>
		</g>
	</g>
</g>
</svg>
